<?xml version="1.0" encoding="utf-8"?>
<!-- Generator: Adobe Illustrator 24.0.3, SVG Export Plug-In . SVG Version: 6.00 Build 0)  -->
<svg version="1.1" id="Camada_1" xmlns="http://www.w3.org/2000/svg" xmlns:xlink="http://www.w3.org/1999/xlink" x="0px" y="0px"
	 viewBox="0 0 332.32 274.85" style="enable-background:new 0 0 332.32 274.85;" xml:space="preserve">
<style type="text/css">
	.st0{fill:#D4EEEB;}
	.st1{fill:#FCA610;}
	.st2{fill:#FCC72D;}
	.st3{fill:#FFE557;}
	.st4{fill:#69443D;}
	.st5{fill:#ACD300;}
	.st6{fill:#B6E737;}
	.st7{fill:#D34332;}
	.st8{fill:#E95150;}
	.st9{fill:#FF7D7B;}
	.st10{fill:#FFE753;}
	.st11{fill:#8F5333;}
	.st12{fill:#A76547;}
	.st13{fill:#C98169;}
	.st14{fill:#FFFFFF;}
	.st15{fill:none;stroke:#69443D;stroke-width:2.5;stroke-miterlimit:10;}
	.st16{fill:none;stroke:#69443D;stroke-width:2.5;stroke-linecap:round;stroke-linejoin:round;stroke-miterlimit:10;}
</style>
<g>
	<g>
		<path class="st0" d="M332.32,166.16c0,40.98-14.83,78.48-39.44,107.44H39.44C14.83,244.64,0,207.14,0,166.16
			C0,74.39,74.39,0,166.16,0C257.93,0,332.32,74.39,332.32,166.16z"/>
		<g>
			<g>
				<path class="st1" d="M277.89,243.94v10.71c0,9.03-7.33,16.36-16.33,16.36H70.76c-9.03,0-16.33-7.33-16.33-16.36v-10.71
					c0-5.18,4.2-9.38,9.38-9.38h204.71C273.69,234.56,277.89,238.76,277.89,243.94z"/>
				<path class="st2" d="M277.89,243.94v10.71c0,9.03-7.33,16.36-16.33,16.36H102.91c-9.03,0-16.36-7.33-16.36-16.36v-10.71
					c0-5.18,4.2-9.38,9.38-9.38h172.59C273.69,234.56,277.89,238.76,277.89,243.94z"/>
				<g>
					<path class="st3" d="M252.55,250.17h-16.03c-2.51,0-4.55-2.04-4.55-4.55l0,0c0-2.51,2.04-4.55,4.55-4.55h16.03
						c2.51,0,4.55,2.04,4.55,4.55l0,0C257.09,248.13,255.06,250.17,252.55,250.17z"/>
					<path class="st3" d="M267.16,250.17h-1.49c-2.51,0-4.55-2.04-4.55-4.55l0,0c0-2.51,2.04-4.55,4.55-4.55h1.49
						c2.51,0,4.55,2.04,4.55,4.55l0,0C271.7,248.13,269.67,250.17,267.16,250.17z"/>
				</g>
				<g>
					<path class="st4" d="M268.52,234.56c5.18,0,9.38,4.2,9.38,9.38v10.71c0,9.03-7.33,16.36-16.33,16.36H70.76
						c-9.03,0-16.33-7.33-16.33-16.36v-10.71c0-5.18,4.2-9.38,9.38-9.38H268.52 M268.52,232.06H63.81
						c-6.55,0-11.88,5.33-11.88,11.88v10.71c0,10.4,8.45,18.86,18.83,18.86h190.81c10.38,0,18.83-8.46,18.83-18.86v-10.71
						C280.39,237.39,275.07,232.06,268.52,232.06L268.52,232.06z"/>
				</g>
			</g>
			<g>
				<path class="st5" d="M271.7,229.35c-0.06,1.39-0.63,2.68-1.58,3.63c-0.98,0.98-2.34,1.58-3.82,1.58h-9.03
					c-4.3,3.41-9.73,5.43-15.63,5.43c-3.76,0-7.29-0.79-10.48-2.27c-4.61-2.08-9.63-3.16-14.68-3.16c-5.05,0-10.07,1.04-14.69,3.16
					c-3.19,1.48-6.73,2.27-10.48,2.27c-3.73,0-7.26-0.79-10.45-2.27c-4.61-2.08-9.63-3.16-14.68-3.16c-5.05,0-10.07,1.04-14.69,3.16
					c-3.19,1.48-6.73,2.27-10.48,2.27c-3.73,0-7.29-0.79-10.48-2.27c-4.58-2.12-9.6-3.16-14.65-3.16c-5.08,0-10.07,1.07-14.69,3.16
					c-3.19,1.48-6.73,2.27-10.48,2.27c-5.91,0-11.34-2.02-15.63-5.43h-8.81c-3.06,0-5.72-2.53-5.62-5.59
					c0.06-1.07,0.41-2.08,0.98-2.91c0.19-0.25,0.38-0.47,0.6-0.69c0.98-0.98,2.31-1.58,3.79-1.58h200.06c1.89,0,3.63,0.95,4.64,2.4
					C271.36,227.11,271.74,228.19,271.7,229.35z"/>
				<path class="st6" d="M270.69,226.2c-0.16,0.25-0.35,0.47-0.57,0.69c-0.98,0.98-2.34,1.58-3.82,1.58h-9.03
					c-4.3,3.41-9.73,5.46-15.63,5.46c-3.76,0-7.29-0.82-10.48-2.27c-4.61-2.12-9.63-3.19-14.68-3.19c-5.05,0-10.07,1.04-14.69,3.16
					c-3.19,1.48-6.73,2.31-10.48,2.31c-3.73,0-7.26-0.82-10.45-2.27c-4.61-2.12-9.63-3.19-14.68-3.19c-5.05,0-10.07,1.04-14.69,3.16
					c-3.19,1.48-6.73,2.31-10.48,2.31c-3.73,0-7.29-0.82-10.48-2.31c-4.58-2.12-9.6-3.16-14.65-3.16c-5.08,0-10.07,1.07-14.69,3.19
					c-3.19,1.45-6.73,2.27-10.48,2.27c-5.91,0-11.34-2.05-15.63-5.46h-8.81c-1.86,0-3.6-0.95-4.64-2.4c0.19-0.25,0.38-0.47,0.6-0.69
					c0.98-0.98,2.31-1.58,3.79-1.58h200.06C267.95,223.8,269.68,224.74,270.69,226.2z"/>
				<g>
					<path class="st4" d="M266.05,223.8c1.89,0,3.63,0.95,4.64,2.4c0.66,0.92,1.04,1.99,1.01,3.16c-0.06,1.39-0.63,2.68-1.58,3.63
						c-0.98,0.98-2.34,1.58-3.82,1.58h-9.03c-4.3,3.41-9.73,5.43-15.63,5.43c-3.76,0-7.29-0.79-10.48-2.27
						c-4.61-2.08-9.63-3.16-14.68-3.16c-5.05,0-10.07,1.04-14.69,3.16c-3.19,1.48-6.73,2.27-10.48,2.27
						c-3.73,0-7.26-0.79-10.45-2.27c-4.61-2.08-9.63-3.16-14.68-3.16c-5.05,0-10.07,1.04-14.69,3.16
						c-3.19,1.48-6.73,2.27-10.48,2.27c-3.73,0-7.29-0.79-10.48-2.27c-4.58-2.12-9.6-3.16-14.65-3.16c-5.08,0-10.07,1.07-14.69,3.16
						c-3.19,1.48-6.73,2.27-10.48,2.27c-5.91,0-11.34-2.02-15.63-5.43h-8.81c-3.06,0-5.72-2.53-5.62-5.59
						c0.06-1.07,0.41-2.08,0.98-2.91c0.19-0.25,0.38-0.47,0.6-0.69c0.98-0.98,2.31-1.58,3.79-1.58H266.05 M266.05,221.3H65.99
						c-2.09,0-4.07,0.82-5.56,2.31c-0.3,0.3-0.57,0.61-0.83,0.96l-0.03,0.04l-0.03,0.04c-0.84,1.21-1.33,2.66-1.42,4.18l0,0.03
						l0,0.03c-0.07,2.1,0.73,4.11,2.23,5.66c1.55,1.59,3.69,2.51,5.89,2.51h7.96c4.78,3.56,10.46,5.43,16.48,5.43
						c4.08,0,7.96-0.84,11.54-2.51c4.29-1.94,8.88-2.92,13.63-2.92c4.76,0,9.46,1.01,13.6,2.93c3.57,1.66,7.45,2.5,11.53,2.5
						c4.08,0,7.96-0.84,11.54-2.51c4.17-1.91,8.88-2.92,13.63-2.92c4.68,0,9.41,1.02,13.65,2.94c3.55,1.65,7.42,2.5,11.48,2.5
						c4.08,0,7.96-0.84,11.54-2.51c4.17-1.91,8.88-2.92,13.63-2.92c4.68,0,9.41,1.02,13.66,2.94c3.55,1.65,7.43,2.5,11.51,2.5
						c6.02,0,11.7-1.87,16.48-5.43h8.18c2.11,0,4.1-0.82,5.59-2.31c1.4-1.4,2.22-3.27,2.31-5.29c0.05-1.71-0.47-3.33-1.48-4.74
						C271.23,222.59,268.73,221.3,266.05,221.3L266.05,221.3z"/>
				</g>
			</g>
			<g>
				<path class="st7" d="M271.7,201.15v8.87c0,3.85-3.13,6.95-6.98,6.95H67.6c-3.85,0-6.98-3.1-6.98-6.95v-8.87
					c0-3.82,3.13-6.95,6.98-6.95h197.13C268.58,194.2,271.7,197.33,271.7,201.15z"/>
				<path class="st8" d="M271.7,201.15v8.87c0,3.85-3.13,6.95-6.98,6.95H94.51c-3.82,0-6.95-3.1-6.95-6.95v-8.87
					c0-3.82,3.13-6.95,6.95-6.95h170.22C268.58,194.2,271.7,197.33,271.7,201.15z"/>
				<g>
					<g>
						<path class="st9" d="M249.2,204.75h-12.05c-2,0-3.62-1.62-3.62-3.62l0,0c0-2,1.62-3.62,3.62-3.62h12.05
							c2,0,3.62,1.62,3.62,3.62l0,0C252.82,203.13,251.2,204.75,249.2,204.75z"/>
						<path class="st9" d="M261,204.75h-1.4c-2,0-3.62-1.62-3.62-3.62l0,0c0-2,1.62-3.62,3.62-3.62h1.4c2,0,3.62,1.62,3.62,3.62l0,0
							C264.62,203.13,263,204.75,261,204.75z"/>
					</g>
				</g>
				<g>
					<path class="st4" d="M264.73,194.2c3.85,0,6.98,3.13,6.98,6.95v8.87c0,3.85-3.13,6.95-6.98,6.95H67.6
						c-3.85,0-6.98-3.1-6.98-6.95v-8.87c0-3.82,3.13-6.95,6.98-6.95H264.73 M264.73,191.7H67.6c-5.23,0-9.48,4.24-9.48,9.45v8.87
						c0,5.21,4.25,9.45,9.48,9.45h197.13c5.23,0,9.48-4.24,9.48-9.45v-8.87C274.2,195.94,269.95,191.7,264.73,191.7L264.73,191.7z"
						/>
				</g>
			</g>
			<g>
				<path class="st2" d="M271.7,183.44c0,2.4-1.96,4.36-4.39,4.36h-7.01l-94.14,11.4l-94.14-11.4h-7.04c-2.4,0-4.36-1.96-4.36-4.36
					c0-1.83,1.14-3.41,2.72-4.04c0.51-0.22,1.07-0.35,1.64-0.35h202.34c0.6,0,1.14,0.13,1.64,0.35
					C270.57,180.03,271.7,181.61,271.7,183.44z"/>
				<path class="st10" d="M268.96,179.4c-0.51,0.19-1.04,0.32-1.64,0.32h-7.01l-94.14,11.4l-94.14-11.4h-7.04
					c-0.57,0-1.14-0.13-1.64-0.32c0.51-0.22,1.07-0.35,1.64-0.35h202.34C267.92,179.05,268.45,179.17,268.96,179.4z"/>
				<g>
					<path class="st4" d="M267.32,179.05c0.6,0,1.14,0.13,1.64,0.35c1.61,0.63,2.75,2.21,2.75,4.04c0,2.4-1.96,4.36-4.39,4.36h-7.01
						l-94.14,11.4l-94.14-11.4h-7.04c-2.4,0-4.36-1.96-4.36-4.36c0-1.83,1.14-3.41,2.72-4.04c0.51-0.22,1.07-0.35,1.64-0.35H267.32
						 M267.32,176.55H64.98c-0.88,0-1.78,0.19-2.61,0.54c-2.54,1.04-4.25,3.58-4.25,6.35c0,3.78,3.08,6.86,6.86,6.86h6.89
						l93.99,11.38l0.3,0.04l0.3-0.04l93.99-11.38h6.86c3.8,0,6.89-3.08,6.89-6.86c0-2.78-1.72-5.32-4.29-6.35
						C269.08,176.73,268.21,176.55,267.32,176.55L267.32,176.55z"/>
				</g>
			</g>
			<g>
				<path class="st11" d="M271.7,155.66v12c0,3.85-3.13,6.95-6.98,6.95H67.6c-3.85,0-6.98-3.09-6.98-6.95v-12
					c0-3.85,3.13-6.98,6.98-6.98h197.13C268.58,148.69,271.7,151.81,271.7,155.66z"/>
				<path class="st12" d="M271.7,155.66v12c0,3.85-3.13,6.95-6.98,6.95H94.82c-3.85,0-6.98-3.09-6.98-6.95v-12
					c0-3.85,3.13-6.98,6.98-6.98h169.9C268.58,148.69,271.7,151.81,271.7,155.66z"/>
				<g>
					<path class="st13" d="M249.2,158.85h-12.05c-2,0-3.62-1.62-3.62-3.62l0,0c0-2,1.62-3.62,3.62-3.62h12.05
						c2,0,3.62,1.62,3.62,3.62l0,0C252.82,157.23,251.2,158.85,249.2,158.85z"/>
					<path class="st13" d="M261,158.85h-1.4c-2,0-3.62-1.62-3.62-3.62l0,0c0-2,1.62-3.62,3.62-3.62h1.4c2,0,3.62,1.62,3.62,3.62l0,0
						C264.62,157.23,263,158.85,261,158.85z"/>
				</g>
				<g>
					<path class="st4" d="M264.73,148.69c3.85,0,6.98,3.13,6.98,6.98v12c0,3.85-3.13,6.95-6.98,6.95H67.6
						c-3.85,0-6.98-3.09-6.98-6.95v-12c0-3.85,3.13-6.98,6.98-6.98H264.73 M264.73,146.19H67.6c-5.23,0-9.48,4.25-9.48,9.48v12
						c0,5.21,4.25,9.45,9.48,9.45h197.13c5.23,0,9.48-4.24,9.48-9.45v-12C274.2,150.44,269.95,146.19,264.73,146.19L264.73,146.19z"
						/>
				</g>
			</g>
			<g>
				<path class="st1" d="M279.41,136.88c0,2.62-1.07,4.99-2.78,6.73c-1.74,1.71-4.11,2.78-6.73,2.78H62.42
					c-5.27,0-9.54-4.26-9.54-9.51c0-23.5,9.51-44.72,24.92-60.13c12.19-12.19,28.04-20.69,45.79-23.65
					c4.64-0.82,9.44-1.23,14.34-1.23h56.47c44.37,0,80.78,33.98,84.67,77.34C279.28,131.74,279.41,134.29,279.41,136.88z"/>
				<path class="st2" d="M279.06,129.21H95.48c-4.93,0-8.91-4.01-8.91-8.91c0-21.95,8.91-41.84,23.31-56.25
					c0.38-0.38,0.77-0.76,1.16-1.14c7.2-6.92,16.75-11.03,26.73-11.05c0.05,0,0.1,0,0.15,0h56.47
					C238.77,51.87,275.18,85.85,279.06,129.21z"/>
				<g>
					<g>
						<path class="st14" d="M93.76,110.46h-4.22c-1.41,0-2.56-1.15-2.56-2.56l0,0c0-1.41,1.15-2.56,2.56-2.56h4.22
							c1.41,0,2.56,1.15,2.56,2.56l0,0C96.32,109.32,95.17,110.46,93.76,110.46z"/>
					</g>
					<g>
						<path class="st14" d="M133.25,90.98h-4.22c-1.41,0-2.56-1.15-2.56-2.56l0,0c0-1.41,1.15-2.56,2.56-2.56h4.22
							c1.41,0,2.56,1.15,2.56,2.56l0,0C135.81,89.83,134.67,90.98,133.25,90.98z"/>
					</g>
					<g>
						<path class="st14" d="M192.91,125.16h-4.22c-1.41,0-2.56-1.15-2.56-2.56l0,0c0-1.41,1.15-2.56,2.56-2.56h4.22
							c1.41,0,2.56,1.15,2.56,2.56l0,0C195.47,124.01,194.33,125.16,192.91,125.16z"/>
					</g>
					<g>
						<path class="st14" d="M144.98,122.6h-4.22c-1.41,0-2.56-1.15-2.56-2.56l0,0c0-1.41,1.15-2.56,2.56-2.56h4.22
							c1.41,0,2.56,1.15,2.56,2.56l0,0C147.54,121.45,146.39,122.6,144.98,122.6z"/>
					</g>
					<g>
						<path class="st14" d="M212.92,104.94h-4.22c-1.41,0-2.56-1.15-2.56-2.56l0,0c0-1.41,1.15-2.56,2.56-2.56h4.22
							c1.41,0,2.56,1.15,2.56,2.56l0,0C215.48,103.79,214.33,104.94,212.92,104.94z"/>
					</g>
					<g>
						<path class="st14" d="M238.82,88.5h-4.22c-1.41,0-2.56-1.15-2.56-2.56l0,0c0-1.41,1.15-2.56,2.56-2.56h4.22
							c1.41,0,2.56,1.15,2.56,2.56l0,0C241.38,87.35,240.23,88.5,238.82,88.5z"/>
					</g>
					<g>
						<path class="st14" d="M252.91,120.16h-4.22c-1.41,0-2.56-1.15-2.56-2.56l0,0c0-1.41,1.15-2.56,2.56-2.56h4.22
							c1.41,0,2.56,1.15,2.56,2.56l0,0C255.47,119.02,254.32,120.16,252.91,120.16z"/>
					</g>
					<g>
						<path class="st14" d="M208.07,70.02h-4.22c-1.41,0-2.56-1.15-2.56-2.56l0,0c0-1.41,1.15-2.56,2.56-2.56h4.22
							c1.41,0,2.56,1.15,2.56,2.56l0,0C210.63,68.88,209.49,70.02,208.07,70.02z"/>
					</g>
					<g>
						<path class="st14" d="M172.61,103.14h-4.22c-1.41,0-2.56-1.15-2.56-2.56l0,0c0-1.41,1.15-2.56,2.56-2.56h4.22
							c1.41,0,2.56,1.15,2.56,2.56l0,0C175.17,101.99,174.03,103.14,172.61,103.14z"/>
					</g>
					<g>
						<path class="st14" d="M167.54,71.2h-4.22c-1.41,0-2.56-1.15-2.56-2.56l0,0c0-1.41,1.15-2.56,2.56-2.56h4.22
							c1.41,0,2.56,1.15,2.56,2.56l0,0C170.1,70.06,168.95,71.2,167.54,71.2z"/>
					</g>
					<g>
						<path class="st14" d="M116.15,72.2h-4.22c-1.41,0-2.56-1.15-2.56-2.56l0,0c0-1.41,1.15-2.56,2.56-2.56h4.22
							c1.41,0,2.56,1.15,2.56,2.56l0,0C118.71,71.05,117.57,72.2,116.15,72.2z"/>
					</g>
				</g>
				<path class="st15" d="M279.41,136.88c0,2.62-1.07,4.99-2.78,6.73c-1.74,1.71-4.11,2.78-6.73,2.78H62.42
					c-5.27,0-9.54-4.26-9.54-9.51c0-23.5,9.51-44.72,24.92-60.13c12.19-12.19,28.04-20.69,45.79-23.65
					c4.64-0.82,9.44-1.23,14.34-1.23h56.47c44.37,0,80.78,33.98,84.67,77.34C279.28,131.74,279.41,134.29,279.41,136.88z"/>
			</g>
		</g>
		<g>
			
				<ellipse transform="matrix(0.7071 -0.7071 0.7071 0.7071 48.1445 226.6362)" class="st8" cx="297.65" cy="55.2" rx="30.28" ry="30.28"/>
			
				<ellipse transform="matrix(0.7071 -0.7071 0.7071 0.7071 48.1445 226.6362)" class="st15" cx="297.65" cy="55.2" rx="30.28" ry="30.28"/>
			<path class="st14" d="M309.69,49.78h-6.62v-6.62c0-1.22-0.99-2.21-2.21-2.21h-6.42c-1.22,0-2.21,0.99-2.21,2.21v6.62h-6.62
				c-1.22,0-2.21,0.99-2.21,2.21v6.42c0,1.22,0.99,2.21,2.21,2.21h6.62v6.62c0,1.22,0.99,2.21,2.21,2.21h6.42
				c1.22,0,2.21-0.99,2.21-2.21v-6.62h6.62c1.22,0,2.21-0.99,2.21-2.21v-6.42C311.9,50.77,310.91,49.78,309.69,49.78z"/>
		</g>
		<polyline class="st16" points="327.68,273.6 292.88,273.6 39.44,273.6 4.64,273.6 		"/>
	</g>
</g>
<g>
</g>
<g>
</g>
<g>
</g>
<g>
</g>
<g>
</g>
<g>
</g>
<g>
</g>
<g>
</g>
<g>
</g>
<g>
</g>
<g>
</g>
<g>
</g>
<g>
</g>
<g>
</g>
<g>
</g>
</svg>
