<?xml version="1.0" encoding="utf-8"?>
<!-- Generator: Adobe Illustrator 24.0.3, SVG Export Plug-In . SVG Version: 6.00 Build 0)  -->
<svg version="1.1" id="Camada_1" xmlns="http://www.w3.org/2000/svg" xmlns:xlink="http://www.w3.org/1999/xlink" x="0px" y="0px"
	 viewBox="0 0 332.32 274.85" style="enable-background:new 0 0 332.32 274.85;" xml:space="preserve">
<style type="text/css">
	.st0{fill:#D4EEEB;}
	.st1{fill:none;stroke:#69443D;stroke-width:2.5;stroke-linecap:round;stroke-linejoin:round;stroke-miterlimit:10;}
	.st2{fill:#B6E737;}
	.st3{fill:#ACD300;}
	.st4{fill:none;stroke:#69443D;stroke-width:2.5;stroke-miterlimit:10;}
	.st5{fill:#E3EAF0;}
	.st6{fill:#FFFFFF;}
	.st7{fill:#E95150;}
	.st8{fill:#8F5333;}
	.st9{fill:#A76547;}
	.st10{fill:#FCA610;}
	.st11{fill:#FCC72D;}
	.st12{fill:#FFE557;}
	.st13{fill:#69443D;}
	.st14{fill:#C98169;}
	.st15{fill:#D34332;}
</style>
<g>
	<path class="st0" d="M305.32,173.81c0,40.01-16.61,76.13-43.31,101.87H65.69c-26.69-25.73-43.31-61.85-43.31-101.87
		c0-78.12,63.34-141.46,141.46-141.46C241.98,32.35,305.32,95.69,305.32,173.81z"/>
	<polyline class="st1" points="285.11,275.68 266.68,275.68 61.01,275.68 42.59,275.68 	"/>
	<g>
		<g>
			<g>
				<path class="st2" d="M227.16,209.38c0,0-3.07,12.47-14.35,19.83c-2.84,1.9-6.22,3.45-10.2,4.38l-18.28-63.87
					c0,0,6.18,0.72,13.59,7.47c1.88,1.69,3.83,3.77,5.78,6.31L227.16,209.38z"/>
				<path class="st3" d="M212.81,229.21c-2.84,1.9-6.22,3.45-10.2,4.38l-18.28-63.87c0,0,6.18,0.72,13.59,7.47L212.81,229.21z"/>
				<path class="st4" d="M227.16,209.38c0,0-3.07,12.47-14.35,19.83c-2.84,1.9-6.22,3.45-10.2,4.38l-18.28-63.87
					c0,0,6.18,0.72,13.59,7.47c1.88,1.69,3.83,3.77,5.78,6.31L227.16,209.38z"/>
			</g>
			<g>
				<path class="st2" d="M102.19,209.38c0,0,3.07,12.47,14.35,19.83c2.84,1.9,6.22,3.45,10.2,4.38l18.28-63.87
					c0,0-6.18,0.72-13.59,7.47c-1.88,1.69-3.83,3.77-5.78,6.31L102.19,209.38z"/>
				<path class="st3" d="M116.54,229.21c2.84,1.9,6.22,3.45,10.2,4.38l18.28-63.87c0,0-6.18,0.72-13.59,7.47L116.54,229.21z"/>
				<path class="st4" d="M102.19,209.38c0,0,3.07,12.47,14.35,19.83c2.84,1.9,6.22,3.45,10.2,4.38l18.28-63.87
					c0,0-6.18,0.72-13.59,7.47c-1.88,1.69-3.83,3.77-5.78,6.31L102.19,209.38z"/>
			</g>
			<g>
				<path class="st3" d="M209.24,275.67h-90.79l12.72-88c1.29-8.95,7.51-16.47,16.13-19.18c2.65-0.83,5.46-1.4,8.19-1.4h16.7
					c2.73,0,5.52,0.57,8.19,1.4c8.61,2.71,14.82,10.24,16.13,19.18L209.24,275.67z"/>
				<path class="st2" d="M209.24,275.67h-79.45l12.72-88c1.29-8.95,7.51-16.47,16.13-19.18c2.65-0.83,5.46-1.4,8.17-1.4h5.38
					c2.73,0,5.52,0.57,8.19,1.4c8.61,2.71,14.82,10.24,16.13,19.18L209.24,275.67z"/>
				<path class="st4" d="M209.24,275.67h-90.79l12.72-88c1.29-8.95,7.51-16.47,16.13-19.18c2.65-0.83,5.46-1.4,8.19-1.4h16.7
					c2.73,0,5.52,0.57,8.19,1.4c8.61,2.71,14.82,10.24,16.13,19.18L209.24,275.67z"/>
			</g>
		</g>
		<g>
			<g>
				
					<ellipse transform="matrix(0.7487 -0.6629 0.6629 0.7487 -48.3758 204.8694)" class="st5" cx="246.02" cy="166.24" rx="21.07" ry="21.07"/>
				<circle class="st6" cx="244.98" cy="163.86" r="16.95"/>
				<polygon class="st6" points="208.85,158.95 228.67,160.49 226.98,168.65 				"/>
				<path class="st1" d="M246.02,145.17c-9.56,0-17.63,6.38-20.2,15.11l-16.98-1.32l16.17,8.65c0.7,11,9.82,19.71,21,19.71
					c11.64,0,21.07-9.43,21.07-21.07S257.66,145.17,246.02,145.17z"/>
			</g>
			<path class="st7" d="M249.95,157.86c-2.4,1.73-3.92,4.28-3.92,4.28s-1.53-2.55-3.92-4.28c-3.61-2.61-8.67,0.39-8.18,4.82
				c0.41,3.71,3.06,8.92,12.1,14.77c9.04-5.85,11.69-11.05,12.1-14.77C258.62,158.25,253.56,155.25,249.95,157.86z"/>
		</g>
		<g>
			<g>
				<path class="st5" d="M172.13,156.56v13.59c0,3.28-2.1,6.05-5.02,7.05c-0.76,0.27-1.57,0.42-2.43,0.42
					c-4.11,0-7.45-3.34-7.45-7.47v-13.59H172.13z"/>
				<path class="st6" d="M172.13,156.56v13.59c0,3.28-2.1,6.05-5.02,7.05c-2.94-0.99-5.04-3.77-5.04-7.05v-13.59H172.13z"/>
				<path class="st4" d="M172.13,156.56v13.59c0,3.28-2.1,6.05-5.02,7.05c-0.76,0.27-1.57,0.42-2.43,0.42
					c-4.11,0-7.45-3.34-7.45-7.47v-13.59H172.13z"/>
			</g>
			<g>
				<path class="st8" d="M228.84,35.97c0.11,1.86-0.02,3.73-0.38,5.61c-1.84,9.48-7.77,21.91-26.03,25.04L158.89,54.4
					c0,0-15.15-30.62,2.62-45.37c2.88-2.37,6.22-4.06,9.76-4.93c3.75-0.93,7.73-0.95,11.56,0.11c4.68,1.27,9.73,4.28,12.63,10.94
					c0,0,9.19-2.86,18.54,0.44C222.8,18.7,228.41,26.95,228.84,35.97z"/>
				<path class="st9" d="M228.84,35.97c-7.17,4.32-17.18,7-28.23,7c-21.82,0-39.51-10.43-39.51-23.28c0-5.99,3.85-11.47,10.16-15.58
					c3.75-0.93,7.73-0.95,11.56,0.11c4.68,1.27,9.73,4.28,12.63,10.94c0,0,9.19-2.86,18.54,0.44
					C222.8,18.7,228.41,26.95,228.84,35.97z"/>
				<path class="st4" d="M228.84,35.97c0.11,1.86-0.02,3.73-0.38,5.61c-1.84,9.48-7.77,21.91-26.03,25.04L158.89,54.4
					c0,0-15.15-30.62,2.62-45.37c2.88-2.37,6.22-4.06,9.76-4.93c3.75-0.93,7.73-0.95,11.56,0.11c4.68,1.27,9.73,4.28,12.63,10.94
					c0,0,9.19-2.86,18.54,0.44C222.8,18.7,228.41,26.95,228.84,35.97z"/>
			</g>
			<g>
				<path class="st8" d="M108.29,109.83c0,0-4.37-23.11,9.43-43.44c10.81-15.93,29.53-24.58,48.75-23.3
					c7.17,0.48,14.79,2.45,21.31,7.36c0,0,0.48-0.05,1.33-0.09c25.96-1.29,46.38,22.13,41.59,47.68
					c-1.15,6.15-3.31,12.88-7.05,19.73l-36.34,10.48l-61.72-5.12L108.29,109.83z"/>
				<path class="st9" d="M230.68,98.02c-0.08,0.44-0.17,0.89-0.28,1.35c-43.45-2.9-38.18-37.91-38.18-37.91
					c-67.41-8-78.33,36.64-80.1,51.32l-3.83-2.94c0,0-4.38-23.11,9.42-43.45c10.81-15.92,29.54-24.57,48.74-23.3
					c7.18,0.47,14.79,2.45,21.31,7.36c0,0,0.47-0.04,1.35-0.09C215.06,49.06,235.48,72.49,230.68,98.02z"/>
				<path class="st4" d="M108.29,109.83c0,0-4.37-23.11,9.43-43.44c10.81-15.93,29.53-24.58,48.75-23.3
					c7.17,0.48,14.79,2.45,21.31,7.36c0,0,0.48-0.05,1.33-0.09c25.96-1.29,46.38,22.13,41.59,47.68
					c-1.15,6.15-3.31,12.88-7.05,19.73l-36.34,10.48l-61.72-5.12L108.29,109.83z"/>
			</g>
			<g>
				<path class="st5" d="M132.05,122.06l-1.84,5.88l-2.24,7.22c-10.14-0.68-16.64-2.98-20.76-5.93c-8.08-5.8-5.04-16.11,1.69-19.75
					c3.15-1.73,7.11-1.97,11.13,0.44C127.29,114.25,132.05,122.06,132.05,122.06z"/>
				<path class="st5" d="M222.13,129.23c-4.11,2.96-10.62,5.25-20.74,5.93l-2.26-7.22l-1.84-5.88c0,0,4.76-7.81,12.02-12.15
					c4.02-2.41,8.02-2.16,11.17-0.42C227.18,113.15,230.19,123.44,222.13,129.23z"/>
				<path class="st6" d="M132.05,122.06l-1.84,5.88c-8.76-0.68-14.45-2.73-18.1-5.35c-4.93-3.55-5.33-8.95-3.2-13.12
					c3.15-1.73,7.11-1.97,11.13,0.44C127.29,114.25,132.05,122.06,132.05,122.06z"/>
				<path class="st6" d="M217.24,122.59c-3.64,2.62-9.33,4.66-18.1,5.35l-1.84-5.88c0,0,4.76-7.81,12.02-12.15
					c4.02-2.41,8.02-2.16,11.17-0.42C222.57,113.68,222.17,119.07,217.24,122.59z"/>
				<g>
					<path class="st4" d="M132.06,122.06c0,0-4.76-7.81-12.02-12.16c-12.53-7.5-24.68,10.8-12.82,19.32
						c4.12,2.96,10.62,5.26,20.76,5.93L132.06,122.06z"/>
					<path class="st4" d="M197.3,122.06c0,0,4.76-7.81,12.02-12.16c12.53-7.5,24.68,10.8,12.82,19.32
						c-4.12,2.96-10.62,5.26-20.76,5.93L197.3,122.06z"/>
				</g>
			</g>
			<path class="st6" d="M206.81,104.09v22.22c0,18.11-14.68,32.78-32.78,32.78h-18.7c-18.1,0-32.78-14.67-32.78-32.78v-17.19
				c0-4.29,1.16-8.5,3.37-12.18c6.01-10.01,21.48-27.01,57.19-27.01C183.11,69.93,179.58,94.16,206.81,104.09z"/>
			<g>
				<path class="st6" d="M206.81,104.09v22.22c0,18.11-14.68,32.78-32.78,32.78h-18.7c-18.1,0-32.78-14.67-32.78-32.78v-17.19
					c0-4.29,1.16-8.5,3.37-12.18c6.01-10.01,21.48-27.01,57.19-27.01C183.11,69.93,179.58,94.16,206.81,104.09z"/>
				<path class="st5" d="M130,109.13v17.19c0,18.09,14.67,32.76,32.78,32.76h-7.45c-18.1,0-32.78-14.67-32.78-32.76v-17.19
					c0-4.3,1.16-8.51,3.37-12.19c6.01-10.01,21.48-27.01,57.19-27.01c0,0-0.02,0.09-0.04,0.27c-30.43,2.18-44.13,17.46-49.71,26.75
					C131.18,100.62,130,104.83,130,109.13z"/>
				<path class="st4" d="M206.81,104.09v22.22c0,18.11-14.68,32.78-32.78,32.78h-18.7c-18.1,0-32.78-14.67-32.78-32.78v-17.19
					c0-4.29,1.16-8.5,3.37-12.18c6.01-10.01,21.48-27.01,57.19-27.01C183.11,69.93,179.58,94.16,206.81,104.09z"/>
			</g>
			<g>
				<g>
					<path class="st1" d="M164.68,141.12c0,0,8.76,1.86,13.19-5.01"/>
					<path class="st1" d="M176.01,132.25c0,0-0.06,4.66,5.88,5.76"/>
				</g>
				<g>
					<path class="st1" d="M152.6,115.5c0,0-1.76-4.79-7.43-5.34c-2.93-0.28-5.89,0.72-7.78,2.97c-1.15,1.37-2.04,3.33-1.71,6.01"/>
					<path class="st1" d="M176.76,115.5c0,0,1.76-4.79,7.43-5.34c2.93-0.28,5.89,0.72,7.78,2.97c1.15,1.37,2.04,3.33,1.71,6.01"/>
					<path class="st1" d="M132.06,103.93c0,0,3.07-6.83,12.85-5.59"/>
					<path class="st1" d="M197.3,103.93c0,0-3.07-6.83-12.85-5.59"/>
				</g>
				<g>
					<path class="st5" d="M170.27,123.45c0,2.38-2.5,4.31-5.59,4.31c-3.09,0-5.59-1.93-5.59-4.31s2.5-4.31,5.59-4.31
						C167.77,119.15,170.27,121.07,170.27,123.45z"/>
					<path class="st1" d="M170.27,123.45c0,2.38-2.5,4.31-5.59,4.31c-3.09,0-5.59-1.93-5.59-4.31s2.5-4.31,5.59-4.31
						C167.77,119.15,170.27,121.07,170.27,123.45z"/>
				</g>
				<ellipse class="st7" cx="195.18" cy="122.31" rx="5.69" ry="3.26"/>
				<ellipse class="st7" cx="134.18" cy="122.31" rx="5.69" ry="3.26"/>
			</g>
		</g>
		<g>
			<g>
				<g>
					<path class="st10" d="M184.11,207.82v3.27c0,1.57-1.27,2.85-2.84,2.85h-33.19c-1.57,0-2.84-1.27-2.84-2.85v-3.27
						c0-0.9,0.73-1.63,1.63-1.63h35.61C183.38,206.19,184.11,206.92,184.11,207.82z"/>
					<path class="st11" d="M184.11,207.82v3.27c0,1.57-1.27,2.85-2.84,2.85h-27.6c-1.57,0-2.85-1.27-2.85-2.85v-3.27
						c0-0.9,0.73-1.63,1.63-1.63h30.02C183.38,206.19,184.11,206.92,184.11,207.82z"/>
					<g>
						<path class="st12" d="M179.7,208.91h-2.79c-0.44,0-0.79-0.35-0.79-0.79l0,0c0-0.44,0.35-0.79,0.79-0.79h2.79
							c0.44,0,0.79,0.35,0.79,0.79l0,0C180.49,208.55,180.14,208.91,179.7,208.91z"/>
						<path class="st12" d="M182.24,208.91h-0.26c-0.44,0-0.79-0.35-0.79-0.79l0,0c0-0.44,0.35-0.79,0.79-0.79h0.26
							c0.44,0,0.79,0.35,0.79,0.79l0,0C183.03,208.55,182.68,208.91,182.24,208.91z"/>
					</g>
					<g>
						<path class="st13" d="M182.48,206.19c0.9,0,1.63,0.73,1.63,1.63v3.27c0,1.57-1.27,2.85-2.84,2.85h-33.19
							c-1.57,0-2.84-1.27-2.84-2.85v-3.27c0-0.9,0.73-1.63,1.63-1.63H182.48 M182.48,203.69h-35.61c-2.28,0-4.13,1.85-4.13,4.13
							v3.27c0,2.95,2.4,5.35,5.34,5.35h33.19c2.94,0,5.34-2.4,5.34-5.35v-3.27C186.61,205.55,184.76,203.69,182.48,203.69
							L182.48,203.69z"/>
					</g>
				</g>
				<g>
					<path class="st3" d="M183.03,203.91c-0.01,0.32-0.11,0.62-0.27,0.84c-0.17,0.23-0.41,0.36-0.66,0.36h-1.57
						c-0.75,0.79-1.69,1.25-2.72,1.25c-0.65,0-1.27-0.18-1.82-0.53c-0.8-0.48-1.68-0.73-2.55-0.73s-1.75,0.24-2.55,0.73
						c-0.55,0.34-1.17,0.53-1.82,0.53c-0.65,0-1.26-0.18-1.82-0.53c-0.8-0.48-1.68-0.73-2.55-0.73c-0.88,0-1.75,0.24-2.55,0.73
						c-0.55,0.34-1.17,0.53-1.82,0.53c-0.65,0-1.27-0.18-1.82-0.53c-0.8-0.49-1.67-0.73-2.55-0.73c-0.88,0-1.75,0.25-2.55,0.73
						c-0.55,0.34-1.17,0.53-1.82,0.53c-1.03,0-1.97-0.47-2.72-1.25h-1.53c-0.53,0-0.99-0.58-0.98-1.29
						c0.01-0.25,0.07-0.48,0.17-0.67c0.03-0.06,0.07-0.11,0.1-0.16c0.17-0.23,0.4-0.36,0.66-0.36h34.8c0.33,0,0.63,0.22,0.81,0.55
						C182.97,203.39,183.04,203.64,183.03,203.91z"/>
					<path class="st2" d="M182.86,203.18c-0.03,0.06-0.06,0.11-0.1,0.16c-0.17,0.23-0.41,0.36-0.66,0.36h-1.57
						c-0.75,0.79-1.69,1.26-2.72,1.26c-0.65,0-1.27-0.19-1.82-0.53c-0.8-0.49-1.68-0.74-2.55-0.74s-1.75,0.24-2.55,0.73
						c-0.55,0.34-1.17,0.53-1.82,0.53c-0.65,0-1.26-0.19-1.82-0.53c-0.8-0.49-1.68-0.74-2.55-0.74c-0.88,0-1.75,0.24-2.55,0.73
						c-0.55,0.34-1.17,0.53-1.82,0.53c-0.65,0-1.27-0.19-1.82-0.53c-0.8-0.49-1.67-0.73-2.55-0.73c-0.88,0-1.75,0.25-2.55,0.74
						c-0.55,0.34-1.17,0.53-1.82,0.53c-1.03,0-1.97-0.47-2.72-1.26h-1.53c-0.32,0-0.63-0.22-0.81-0.55c0.03-0.06,0.07-0.11,0.1-0.16
						c0.17-0.23,0.4-0.36,0.66-0.36h34.8C182.38,202.62,182.68,202.84,182.86,203.18z"/>
					<g>
						<path class="st13" d="M182.05,202.62c0.33,0,0.63,0.22,0.81,0.55c0.12,0.21,0.18,0.46,0.18,0.73
							c-0.01,0.32-0.11,0.62-0.27,0.84c-0.17,0.23-0.41,0.36-0.66,0.36h-1.57c-0.75,0.79-1.69,1.25-2.72,1.25
							c-0.65,0-1.27-0.18-1.82-0.53c-0.8-0.48-1.68-0.73-2.55-0.73s-1.75,0.24-2.55,0.73c-0.55,0.34-1.17,0.53-1.82,0.53
							c-0.65,0-1.26-0.18-1.82-0.53c-0.8-0.48-1.68-0.73-2.55-0.73c-0.88,0-1.75,0.24-2.55,0.73c-0.55,0.34-1.17,0.53-1.82,0.53
							c-0.65,0-1.27-0.18-1.82-0.53c-0.8-0.49-1.67-0.73-2.55-0.73c-0.88,0-1.75,0.25-2.55,0.73c-0.55,0.34-1.17,0.53-1.82,0.53
							c-1.03,0-1.97-0.47-2.72-1.25h-1.53c-0.53,0-0.99-0.58-0.98-1.29c0.01-0.25,0.07-0.48,0.17-0.67c0.03-0.06,0.07-0.11,0.1-0.16
							c0.17-0.23,0.4-0.36,0.66-0.36H182.05 M182.05,200.12h-34.8c-1.04,0-2.01,0.5-2.66,1.36c-0.1,0.14-0.2,0.28-0.28,0.43
							l-0.02,0.04l-0.02,0.04c-0.27,0.51-0.42,1.11-0.45,1.72l0,0.03l0,0.03c-0.02,1.06,0.37,2.09,1.08,2.82
							c0.65,0.66,1.5,1.03,2.39,1.03h0.59c1.08,0.82,2.35,1.25,3.66,1.25c1.1,0,2.19-0.31,3.14-0.9c0.38-0.23,0.81-0.36,1.24-0.36
							c0.43,0,0.85,0.12,1.24,0.36c0.95,0.58,2.03,0.89,3.13,0.89c1.1,0,2.19-0.31,3.14-0.9c0.38-0.23,0.8-0.36,1.24-0.36
							c0.43,0,0.86,0.13,1.27,0.37c0.92,0.57,2.01,0.88,3.1,0.88c1.1,0,2.19-0.31,3.14-0.9c0.38-0.23,0.81-0.36,1.24-0.36
							c0.43,0,0.86,0.13,1.27,0.37c0.92,0.57,2.01,0.88,3.11,0.88c1.31,0,2.58-0.44,3.66-1.25h0.63c1.04,0,2.01-0.5,2.66-1.36
							c0.47-0.63,0.75-1.43,0.78-2.26c0.02-0.72-0.15-1.41-0.48-2.01C184.46,200.85,183.3,200.12,182.05,200.12L182.05,200.12z"/>
					</g>
				</g>
				<g>
					<path class="st8" d="M183.03,193.91v3.96c0,0.67-0.54,1.21-1.21,1.21h-34.29c-0.67,0-1.21-0.54-1.21-1.21v-3.96
						c0-0.67,0.54-1.21,1.21-1.21h34.29C182.49,192.69,183.03,193.24,183.03,193.91z"/>
					<path class="st9" d="M183.03,193.91v3.96c0,0.67-0.54,1.21-1.21,1.21h-29.55c-0.67,0-1.21-0.54-1.21-1.21v-3.96
						c0-0.67,0.54-1.21,1.21-1.21h29.55C182.49,192.69,183.03,193.24,183.03,193.91z"/>
					<g>
						<path class="st14" d="M179.12,194.46h-2.1c-0.35,0-0.63-0.28-0.63-0.63l0,0c0-0.35,0.28-0.63,0.63-0.63h2.1
							c0.35,0,0.63,0.28,0.63,0.63l0,0C179.75,194.18,179.47,194.46,179.12,194.46z"/>
						<path class="st14" d="M181.17,194.46h-0.24c-0.35,0-0.63-0.28-0.63-0.63l0,0c0-0.35,0.28-0.63,0.63-0.63h0.24
							c0.35,0,0.63,0.28,0.63,0.63l0,0C181.8,194.18,181.52,194.46,181.17,194.46z"/>
					</g>
					<g>
						<path class="st13" d="M181.82,192.69c0.67,0,1.21,0.54,1.21,1.21v3.96c0,0.67-0.54,1.21-1.21,1.21h-34.29
							c-0.67,0-1.21-0.54-1.21-1.21v-3.96c0-0.67,0.54-1.21,1.21-1.21H181.82 M181.82,190.19h-34.29c-2.05,0-3.71,1.67-3.71,3.71
							v3.96c0,2.04,1.67,3.71,3.71,3.71h34.29c2.05,0,3.71-1.66,3.71-3.71v-3.96C185.53,191.86,183.87,190.19,181.82,190.19
							L181.82,190.19z"/>
					</g>
				</g>
				<g>
					<path class="st10" d="M184.38,186.4c0,0.46-0.19,1.9-0.48,2.21c-0.3,0.3-0.71,0.48-1.17,0.48h-36.09
						c-0.92,0-1.66-1.78-1.66-2.69c0-4.09,1.65-7.78,4.33-10.46c2.12-2.12,4.88-3.6,7.96-4.11c0.81-0.14,1.64-0.21,2.49-0.21h9.82
						c7.72,0,14.05,5.91,14.73,13.45C184.35,185.51,184.38,185.95,184.38,186.4z"/>
					<path class="st11" d="M184.31,185.07h-31.93c-0.86,0-1.55-0.7-1.55-1.55c0-3.82,1.55-7.28,4.05-9.78
						c0.07-0.07,0.13-0.13,0.2-0.2c1.25-1.2,2.91-1.92,4.65-1.92c0.01,0,0.02,0,0.03,0h9.82
						C177.31,171.62,183.64,177.53,184.31,185.07z"/>
					<g>
						<g>
							<path class="st6" d="M152.08,181.81h-0.73c-0.25,0-0.45-0.2-0.45-0.45l0,0c0-0.25,0.2-0.45,0.45-0.45h0.73
								c0.25,0,0.45,0.2,0.45,0.45l0,0C152.53,181.61,152.33,181.81,152.08,181.81z"/>
						</g>
						<g>
							<path class="st6" d="M158.95,178.42h-0.73c-0.25,0-0.45-0.2-0.45-0.45l0,0c0-0.25,0.2-0.45,0.45-0.45h0.73
								c0.25,0,0.45,0.2,0.45,0.45l0,0C159.4,178.22,159.2,178.42,158.95,178.42z"/>
						</g>
						<g>
							<path class="st6" d="M169.33,184.36h-0.73c-0.25,0-0.45-0.2-0.45-0.45l0,0c0-0.25,0.2-0.45,0.45-0.45h0.73
								c0.25,0,0.45,0.2,0.45,0.45l0,0C169.78,184.17,169.58,184.36,169.33,184.36z"/>
						</g>
						<g>
							<path class="st6" d="M160.99,183.92h-0.73c-0.25,0-0.45-0.2-0.45-0.45l0,0c0-0.25,0.2-0.45,0.45-0.45h0.73
								c0.25,0,0.45,0.2,0.45,0.45l0,0C161.44,183.72,161.24,183.92,160.99,183.92z"/>
						</g>
						<g>
							<path class="st6" d="M172.81,180.85h-0.73c-0.25,0-0.45-0.2-0.45-0.45l0,0c0-0.25,0.2-0.45,0.45-0.45h0.73
								c0.25,0,0.45,0.2,0.45,0.45l0,0C173.25,180.65,173.06,180.85,172.81,180.85z"/>
						</g>
						<g>
							<path class="st6" d="M177.31,177.99h-0.73c-0.25,0-0.45-0.2-0.45-0.45l0,0c0-0.25,0.2-0.45,0.45-0.45h0.73
								c0.25,0,0.45,0.2,0.45,0.45l0,0C177.76,177.79,177.56,177.99,177.31,177.99z"/>
						</g>
						<g>
							<path class="st6" d="M179.77,183.5h-0.73c-0.25,0-0.45-0.2-0.45-0.45l0,0c0-0.25,0.2-0.45,0.45-0.45h0.73
								c0.25,0,0.45,0.2,0.45,0.45l0,0C180.21,183.3,180.01,183.5,179.77,183.5z"/>
						</g>
						<g>
							<path class="st6" d="M171.97,174.78h-0.73c-0.25,0-0.45-0.2-0.45-0.45l0,0c0-0.25,0.2-0.45,0.45-0.45h0.73
								c0.25,0,0.45,0.2,0.45,0.45l0,0C172.41,174.58,172.21,174.78,171.97,174.78z"/>
						</g>
						<g>
							<path class="st6" d="M165.8,180.54h-0.73c-0.25,0-0.45-0.2-0.45-0.45l0,0c0-0.25,0.2-0.45,0.45-0.45h0.73
								c0.25,0,0.45,0.2,0.45,0.45l0,0C166.24,180.34,166.05,180.54,165.8,180.54z"/>
						</g>
						<g>
							<path class="st6" d="M164.92,174.98h-0.73c-0.25,0-0.45-0.2-0.45-0.45l0,0c0-0.25,0.2-0.45,0.45-0.45h0.73
								c0.25,0,0.45,0.2,0.45,0.45l0,0C165.36,174.78,165.16,174.98,164.92,174.98z"/>
						</g>
						<g>
							<path class="st6" d="M155.98,175.15h-0.73c-0.25,0-0.45-0.2-0.45-0.45l0,0c0-0.25,0.2-0.45,0.45-0.45h0.73
								c0.25,0,0.45,0.2,0.45,0.45l0,0C156.42,174.95,156.22,175.15,155.98,175.15z"/>
						</g>
					</g>
					<g>
						<path class="st13" d="M169.59,171.62c7.72,0,14.05,5.91,14.73,13.45c0.04,0.44,0.06,0.88,0.06,1.33c0,0.46-0.19,1.9-0.48,2.21
							c-0.3,0.3-0.71,0.48-1.17,0.48h-36.09c-0.92,0-1.66-1.78-1.66-2.69c0-4.09,1.65-7.78,4.33-10.46c2.12-2.12,4.88-3.6,7.96-4.11
							c0.81-0.14,1.64-0.21,2.49-0.21H169.59 M169.59,169.12h-9.82c-1,0-1.98,0.08-2.93,0.25c-3.52,0.59-6.74,2.25-9.3,4.81
							c-3.27,3.27-5.07,7.61-5.07,12.23c0,1.86,1.39,5.19,4.16,5.19h36.09c1.1,0,2.13-0.43,2.92-1.2c1.22-1.24,1.23-3.88,1.23-3.99
							c0-0.5-0.02-1.02-0.07-1.55C186,175.88,178.6,169.12,169.59,169.12L169.59,169.12z"/>
					</g>
				</g>
			</g>
			<g>
				<path class="st5" d="M81.85,247.69v0.02c2.14,5.08,7.72,8.63,13.99,7.09c0.09-0.02,0.19-0.06,0.28-0.08
					c1.91-0.49,3.66-1.5,5.1-2.84l42.27-37.82c9.71-2.82,13.57-8.17,14.88-13.19c1.21-4.7-0.59-9.18-3.91-11.75
					c-2.54-2.03-5.97-2.9-9.59-1.91c-8.15,2.24-12.23,10.86-12.23,10.86l-47.14,35.53c-1.02,0.85-1.9,1.88-2.6,3
					c-0.15,0.25-0.28,0.49-0.42,0.74C80.53,240.81,80.53,244.55,81.85,247.69z"/>
				<path class="st6" d="M81.85,247.69v0.02c2.71,2.26,6.45,3.36,10.48,2.37c0.09-0.02,0.19-0.06,0.28-0.08
					c1.91-0.49,3.66-1.5,5.1-2.84l42.27-37.82c9.71-2.84,13.57-8.17,14.88-13.19c0.64-2.48,0.46-4.93-0.4-7.03
					c-2.54-2.03-5.97-2.9-9.59-1.91c-8.15,2.24-12.23,10.86-12.23,10.86l-47.14,35.53c-1.02,0.85-1.9,1.88-2.6,3
					c-0.15,0.25-0.28,0.49-0.42,0.74C80.53,240.81,80.53,244.55,81.85,247.69z"/>
				<path class="st4" d="M81.85,247.69v0.02c2.14,5.08,7.72,8.63,13.99,7.09c0.09-0.02,0.19-0.06,0.28-0.08
					c1.91-0.49,3.66-1.5,5.1-2.84l42.27-37.82c9.71-2.82,13.57-8.17,14.88-13.19c1.21-4.7-0.59-9.18-3.91-11.75
					c-2.54-2.03-5.97-2.9-9.59-1.91c-8.15,2.24-12.23,10.86-12.23,10.86l-47.14,35.53c-1.02,0.85-1.9,1.88-2.6,3
					c-0.15,0.25-0.28,0.49-0.42,0.74C80.53,240.81,80.53,244.55,81.85,247.69z"/>
			</g>
			<g>
				<path class="st5" d="M247.51,247.69v0.02c-2.14,5.08-7.72,8.63-13.99,7.09c-0.09-0.02-0.19-0.06-0.28-0.08
					c-1.91-0.49-3.66-1.5-5.1-2.84l-42.27-37.82c-9.71-2.82-13.57-8.17-14.88-13.19c-1.21-4.7,0.59-9.18,3.91-11.75
					c2.54-2.03,5.97-2.9,9.59-1.91c8.15,2.24,12.23,10.86,12.23,10.86l47.14,35.53c1.02,0.85,1.9,1.88,2.6,3
					c0.15,0.25,0.28,0.49,0.42,0.74C248.83,240.81,248.83,244.55,247.51,247.69z"/>
				<path class="st6" d="M247.51,247.69v0.02c-2.71,2.26-6.45,3.36-10.48,2.37c-0.09-0.02-0.19-0.06-0.28-0.08
					c-1.91-0.49-3.66-1.5-5.1-2.84l-42.27-37.82c-9.71-2.84-13.57-8.17-14.88-13.19c-0.64-2.48-0.46-4.93,0.4-7.03
					c2.54-2.03,5.97-2.9,9.59-1.91c8.15,2.24,12.23,10.86,12.23,10.86l47.14,35.53c1.02,0.85,1.9,1.88,2.6,3
					c0.15,0.25,0.28,0.49,0.42,0.74C248.83,240.81,248.83,244.55,247.51,247.69z"/>
				<path class="st4" d="M247.51,247.69v0.02c-2.14,5.08-7.72,8.63-13.99,7.09c-0.09-0.02-0.19-0.06-0.28-0.08
					c-1.91-0.49-3.66-1.5-5.1-2.84l-42.27-37.82c-9.71-2.82-13.57-8.17-14.88-13.19c-1.21-4.7,0.59-9.18,3.91-11.75
					c2.54-2.03,5.97-2.9,9.59-1.91c8.15,2.24,12.23,10.86,12.23,10.86l47.14,35.53c1.02,0.85,1.9,1.88,2.6,3
					c0.15,0.25,0.28,0.49,0.42,0.74C248.83,240.81,248.83,244.55,247.51,247.69z"/>
			</g>
		</g>
	</g>
	<g>
		<g>
			<g>
				<path class="st6" d="M81.57,223.11h-4.6l7.08-19.06c0.76-2.04,2.71-3.4,4.89-3.4h8.12c1.18,0,2.14,0.96,2.14,2.14l0,0
					c0,1.18-0.96,2.14-2.14,2.14h-8.12c-0.39,0-0.74,0.24-0.88,0.61L81.57,223.11z"/>
			</g>
			<g>
				<g>
					<path class="st13" d="M97.06,200.65c1.18,0,2.14,0.96,2.14,2.14s-0.96,2.14-2.14,2.14h-8.12c-0.39,0-0.74,0.24-0.88,0.61
						l-6.49,17.57h-4.6l7.08-19.06c0.76-2.04,2.71-3.4,4.89-3.4H97.06 M97.06,198.15h-8.12c-3.21,0-6.12,2.02-7.23,5.03l-7.08,19.06
						l2.34,3.37h4.6l2.34-1.63l6.12-16.54h7.03c2.56,0,4.64-2.08,4.64-4.64C101.7,200.23,99.62,198.15,97.06,198.15L97.06,198.15z"
						/>
				</g>
			</g>
		</g>
		<g>
			<path class="st15" d="M89.48,232.77l-1.39,13.26l-1.21,11.55l-1.59,15.22c-0.16,1.63-1.54,2.88-3.19,2.88H63.97
				c-1.65,0-3.03-1.24-3.19-2.88l-1.59-15.22l-1.21-11.55l-1.39-13.26H89.48z"/>
			<path class="st7" d="M89.48,232.77l-4.19,40.02c-0.17,1.64-1.55,2.88-3.2,2.88H69.76c-1.65,0-3.03-1.24-3.2-2.88l-4.19-40.02
				H89.48z"/>
			<path class="st4" d="M89.48,232.77l-4.19,40.02c-0.17,1.64-1.55,2.88-3.2,2.88H63.97c-1.65,0-3.03-1.24-3.2-2.88l-4.19-40.02
				H89.48z"/>
			<g>
				<polygon class="st5" points="88.09,246.03 86.87,257.58 59.19,257.58 57.98,246.03 				"/>
				<polygon class="st6" points="88.09,246.03 86.87,257.58 64.97,257.58 63.76,246.03 				"/>
				<polygon class="st4" points="88.09,246.03 86.87,257.58 59.19,257.58 57.98,246.03 				"/>
			</g>
		</g>
		<g>
			<path class="st5" d="M94.18,227.94c0,1.33-0.54,2.55-1.41,3.42c-0.88,0.88-2.08,1.42-3.42,1.42H56.7c-2.67,0-4.82-2.17-4.82-4.84
				c0-1.15,0.4-2.2,1.06-3.03c0.1-0.13,0.22-0.27,0.34-0.39c0.88-0.87,2.08-1.41,3.42-1.41h32.66c1.51,0,2.88,0.7,3.76,1.8
				C93.78,225.73,94.18,226.78,94.18,227.94z"/>
			<path class="st6" d="M93.14,225.12c0,1.26-0.51,2.41-1.35,3.24c-0.82,0.84-1.98,1.35-3.25,1.35H57.53c-2.55,0-4.6-2.05-4.6-4.58
				c0-0.07,0-0.15,0.02-0.21c0.1-0.13,0.22-0.27,0.34-0.39c0.88-0.87,2.08-1.41,3.42-1.41h32.66c1.51,0,2.88,0.7,3.76,1.8
				C93.14,224.97,93.14,225.04,93.14,225.12z"/>
			<path class="st4" d="M94.18,227.94c0,1.33-0.54,2.55-1.41,3.42c-0.88,0.88-2.08,1.42-3.42,1.42H56.7c-2.67,0-4.82-2.17-4.82-4.84
				c0-1.15,0.4-2.2,1.06-3.03c0.1-0.13,0.22-0.27,0.34-0.39c0.88-0.87,2.08-1.41,3.42-1.41h32.66c1.51,0,2.88,0.7,3.76,1.8
				C93.78,225.73,94.18,226.78,94.18,227.94z"/>
		</g>
	</g>
</g>
<g>
</g>
<g>
</g>
<g>
</g>
<g>
</g>
<g>
</g>
<g>
</g>
<g>
</g>
<g>
</g>
<g>
</g>
<g>
</g>
<g>
</g>
<g>
</g>
<g>
</g>
<g>
</g>
<g>
</g>
</svg>
