<?xml version="1.0" encoding="utf-8"?>
<!-- Generator: Adobe Illustrator 24.0.3, SVG Export Plug-In . SVG Version: 6.00 Build 0)  -->
<svg version="1.1" id="Camada_1" xmlns="http://www.w3.org/2000/svg" xmlns:xlink="http://www.w3.org/1999/xlink" x="0px" y="0px"
	 viewBox="0 0 332.32 274.85" style="enable-background:new 0 0 332.32 274.85;" xml:space="preserve">
<style type="text/css">
	.st0{fill:#D4EEEB;}
	.st1{fill:none;stroke:#69443D;stroke-width:2.5;stroke-linecap:round;stroke-linejoin:round;stroke-miterlimit:10;}
	.st2{fill:#B6E737;}
	.st3{fill:#FCC72D;}
	.st4{fill:#FFE753;}
	.st5{fill:#8F5333;}
	.st6{fill:#A76547;}
	.st7{fill:none;stroke:#69443D;stroke-width:2.5;stroke-linejoin:round;stroke-miterlimit:10;}
	.st8{fill:#FFFFFF;}
	.st9{fill:#FFD63B;}
	.st10{fill:#E3EAF0;}
	.st11{fill:none;stroke:#69443D;stroke-width:2.5;stroke-miterlimit:10;}
	.st12{fill:#69443D;}
	.st13{fill:#BF3228;}
	.st14{fill:#D34332;}
	.st15{fill:#E95150;}
	.st16{fill:#ACD300;}
</style>
<g>
	<path class="st0" d="M318.57,143.38h-5.49c-1.84,0-3.33-1.49-3.33-3.33V93.52c0-1.84-1.49-3.33-3.33-3.33h-0.45v-1.71
		c0-0.42-0.34-0.76-0.76-0.76h-5.05V77.1c0-0.93-0.76-1.69-1.69-1.69h-1.09c-0.93,0-1.69,0.76-1.69,1.69v10.61h-5.05
		c-0.42,0-0.76,0.34-0.76,0.76v1.71h-0.58c-1.84,0-3.33,1.49-3.33,3.33v25.43c0,1.81-1.44,3.29-3.25,3.33l-7.6,0.18
		c-1.87,0.04-3.41-1.46-3.41-3.33V69.55c0-1.84-1.49-3.33-3.33-3.33h-14.47c-1.84,0-3.33,1.49-3.33,3.33v4.66
		c0,1.84-1.49,3.33-3.33,3.33h-4.96c-1.84,0-3.33-1.49-3.33-3.33V51.58c0-1.84-1.49-3.33-3.33-3.33h-3.79v-3.3
		c0-0.51-0.41-0.93-0.93-0.93h-6.16V31.08c0-1.14-0.92-2.06-2.06-2.06h-1.33c-1.14,0-2.06,0.92-2.06,2.06v12.94h-6.16
		c-0.51,0-0.93,0.41-0.93,0.93v3.3h-4.28c-1.84,0-3.33,1.49-3.33,3.33v50.63c0,1.86-1.52,3.36-3.38,3.33l-10.78-0.16
		c-1.82-0.03-3.28-1.51-3.28-3.33V79.6c0-1.84-1.49-3.33-3.33-3.33h-17.91c-1.84,0-3.33,1.49-3.33,3.33v31.39
		c0,1.84-1.49,3.33-3.33,3.33h-3.64c-1.84,0-3.33-1.49-3.33-3.33V96.24c0-1.84-1.49-3.33-3.33-3.33H132.6
		c-1.84,0-3.33,1.49-3.33,3.33v3.77c0,1.84-1.49,3.33-3.33,3.33h-3.11c-1.84,0-3.33-1.49-3.33-3.33V56.33
		c0-1.84-1.49-3.33-3.32-3.33l-32.18-0.11c-1.85-0.01-3.34,1.49-3.34,3.33v40.32c0,1.84-1.49,3.33-3.33,3.33H66.62
		c-1.84,0-3.33-1.49-3.33-3.33v-13.8h0.88c0.97,0,1.51-1.13,0.89-1.89L53.05,66.22c-0.46-0.56-1.32-0.56-1.78,0L39.26,80.85
		c-0.62,0.75-0.08,1.89,0.89,1.89h0.76v45.64c0,1.86-1.52,3.36-3.37,3.33l-7.43-0.09c-1.82-0.02-3.29-1.51-3.29-3.33
		c0-1.87-1.53-3.37-3.4-3.33l-10.25,0.21c-1.81,0.04-3.26,1.52-3.26,3.33v143.78h312V146.72
		C321.91,144.88,320.41,143.38,318.57,143.38z"/>
	<g>
		<line class="st1" x1="5.28" y1="274.8" x2="332.32" y2="274.8"/>
		<g>
			<path class="st2" d="M299.71,274.8c3.69,0,5.26,0,8.95,0c1.86,0,6.8-0.09,6.8-0.09s2.34-2.14,3.22-3.04
				c1.38-1.42,2.69-2.91,3.79-4.56c1.82-2.75,3.02-6.03,2.71-9.32c-0.31-3.28-2.36-6.5-5.47-7.61c-3.79-1.35-8.17,0.77-10.43,4.09
				c-2.26,3.32-2.76,7.55-2.6,11.56c-0.46-1.7-0.98-3.33-1.96-4.79c-0.99-1.46-2.59-2.61-4.35-2.59c-1.59,0.02-3.07,1.02-3.95,2.35
				c-0.88,1.33-1.24,2.94-1.34,4.53C294.87,268.68,297.13,272.22,299.71,274.8z"/>
			<path class="st1" d="M299.71,274.8c3.69,0,5.26,0,8.95,0c1.86,0,6.8-0.09,6.8-0.09s2.34-2.14,3.22-3.04
				c1.38-1.42,2.69-2.91,3.79-4.56c1.82-2.75,3.02-6.03,2.71-9.32c-0.31-3.28-2.36-6.5-5.47-7.61c-3.79-1.35-8.17,0.77-10.43,4.09
				c-2.26,3.32-2.76,7.55-2.6,11.56c-0.46-1.7-0.98-3.33-1.96-4.79c-0.99-1.46-2.59-2.61-4.35-2.59c-1.59,0.02-3.07,1.02-3.95,2.35
				c-0.88,1.33-1.24,2.94-1.34,4.53C294.87,268.68,297.13,272.22,299.71,274.8z"/>
		</g>
		<g>
			<path class="st2" d="M23.39,274.8c2.85,0,4.06,0,6.9,0c1.44,0,5.24-0.07,5.24-0.07s1.81-1.65,2.49-2.35
				c1.07-1.09,2.08-2.24,2.92-3.52c1.4-2.12,2.33-4.65,2.09-7.19c-0.24-2.53-1.82-5.02-4.22-5.87c-2.92-1.04-6.3,0.59-8.05,3.16
				c-1.74,2.56-2.13,5.82-2,8.92c-0.36-1.31-0.75-2.57-1.51-3.69c-0.76-1.12-2-2.02-3.36-2c-1.23,0.02-2.36,0.79-3.05,1.81
				c-0.68,1.02-0.96,2.27-1.04,3.49C19.65,270.08,21.39,272.81,23.39,274.8z"/>
			<path class="st1" d="M23.39,274.8c2.85,0,4.06,0,6.9,0c1.44,0,5.24-0.07,5.24-0.07s1.81-1.65,2.49-2.35
				c1.07-1.09,2.08-2.24,2.92-3.52c1.4-2.12,2.33-4.65,2.09-7.19c-0.24-2.53-1.82-5.02-4.22-5.87c-2.92-1.04-6.3,0.59-8.05,3.16
				c-1.74,2.56-2.13,5.82-2,8.92c-0.36-1.31-0.75-2.57-1.51-3.69c-0.76-1.12-2-2.02-3.36-2c-1.23,0.02-2.36,0.79-3.05,1.81
				c-0.68,1.02-0.96,2.27-1.04,3.49C19.65,270.08,21.39,272.81,23.39,274.8z"/>
		</g>
	</g>
	<g>
		<g>
			<g>
				<path class="st3" d="M194.7,176.89c0,0-22.04,15.12-21.61,37.32c0.08,4.1,3.38,7.41,7.49,7.41h27.66c3.04,0,5.68-2.09,6.38-5.04
					l21.17-89.44l18.9,9.28c0,0-3.98,24.91,8.81,41.79c2.24,2.96,4.1,6.2,5.18,9.75c1.25,4.08,2.07,9.47,0.76,15.37
					c-0.06,0.26-0.12,0.52-0.19,0.79c0,0-41.26-4.85-44.73,38.31H43.12c-4.73,0-8.53-3.89-8.43-8.63
					c0.27-12.83,3.37-36.7,21.56-48.57c0,0,8.94-6.08,21.77-8.51L194.7,176.89z"/>
				<path class="st4" d="M269.43,203.33c-0.06,0.26-0.12,0.52-0.18,0.78c0,0-31.1-3.65-41.57,23.62H45.63
					c-5.89,0-10.2-5.47-8.92-11.23c2.52-11.32,7.98-23.71,19.55-31.28c0,0,8.94-6.06,21.78-8.5l116.66,0.18
					c0,0-22.21,15.22-21.6,37.56c0.11,4,3.47,7.16,7.47,7.16h27.67c3.04,0,5.68-2.09,6.38-5.05l21.16-89.44l18.89,9.27
					c0,0-3.97,24.91,8.82,41.79c2.23,2.97,4.09,6.2,5.19,9.75C269.93,192.02,270.75,197.43,269.43,203.33z"/>
				<path class="st1" d="M194.7,176.89c0,0-22.04,15.12-21.61,37.32c0.08,4.1,3.38,7.41,7.49,7.41h27.66c3.04,0,5.68-2.09,6.38-5.04
					l21.17-89.44l18.9,9.28c0,0-3.98,24.91,8.81,41.79c2.24,2.96,4.1,6.2,5.18,9.75c1.25,4.08,2.07,9.47,0.76,15.37
					c-0.06,0.26-0.12,0.52-0.19,0.79c0,0-41.26-4.85-44.73,38.31H43.12c-4.73,0-8.53-3.89-8.43-8.63
					c0.27-12.83,3.37-36.7,21.56-48.57c0,0,8.94-6.08,21.77-8.51L194.7,176.89z"/>
			</g>
			<g>
				<g>
					<g>
						
							<ellipse transform="matrix(0.2313 -0.9729 0.9729 0.2313 -39.2859 437.3285)" class="st5" cx="257.1" cy="243.52" rx="31.28" ry="31.28"/>
						
							<ellipse transform="matrix(0.2234 -0.9747 0.9747 0.2234 -37.7138 439.7116)" class="st6" cx="257.1" cy="243.52" rx="22.86" ry="22.86"/>
						
							<ellipse transform="matrix(0.2313 -0.9729 0.9729 0.2313 -39.2859 437.3285)" class="st7" cx="257.1" cy="243.52" rx="31.28" ry="31.28"/>
					</g>
					<path class="st8" d="M267.68,243.52c0,5.85-4.74,10.59-10.59,10.59c-5.85,0-10.59-4.74-10.59-10.59
						c0-5.85,4.74-10.59,10.59-10.59C262.94,232.94,267.68,237.68,267.68,243.52z"/>
				</g>
				<g>
					<path class="st9" d="M289.64,225.79c-0.26,4.41-3.93,7.88-8.36,8.08c-6.18,0.28-16.06-0.3-27.35-4.73
						c-3.63-1.42-7.52-2.09-11.39-1.74c-6.36,0.6-14.62,3.71-18.03,15.02c0,0-0.14-8.16,3.65-16.97
						c4.34-10.18,13.91-21.21,34.9-21.54c5.67-0.09,11.35,1.15,16.26,4c3.37,1.95,6.76,4.82,8.69,8.97
						C289.2,219.37,289.84,222.3,289.64,225.79z"/>
					<path class="st4" d="M288.02,216.87c0,0.4-0.02,0.84-0.04,1.26c-0.26,4.41-3.93,7.88-8.34,8.08c-6.2,0.28-16.06-0.3-27.37-4.73
						c-3.61-1.42-7.5-2.11-11.37-1.74c-4.07,0.38-8.92,1.8-12.75,5.7c4.34-10.18,13.91-21.21,34.9-21.54
						c5.67-0.09,11.35,1.15,16.26,4C282.7,209.86,286.09,212.73,288.02,216.87z"/>
					<path class="st7" d="M289.64,225.79c-0.26,4.41-3.93,7.88-8.36,8.08c-6.18,0.28-16.06-0.3-27.35-4.73
						c-3.63-1.42-7.52-2.09-11.39-1.74c-6.36,0.6-14.62,3.71-18.03,15.02c0,0-0.14-8.16,3.65-16.97
						c4.34-10.18,13.91-21.21,34.9-21.54c5.67-0.09,11.35,1.15,16.26,4c3.37,1.95,6.76,4.82,8.69,8.97
						C289.2,219.37,289.84,222.3,289.64,225.79z"/>
				</g>
			</g>
			<g>
				<g>
					<path class="st9" d="M58.51,215.96c0,3.25-1.32,6.2-3.45,8.34c-2.13,2.11-5.07,3.43-8.32,3.43H34.95
						c-1.93,0-3.51-1.58-3.51-3.51V207.7c0-1.93,1.58-3.51,3.51-3.51h11.79c3.65,0,6.92,1.68,9.08,4.29c0,0,0.02,0,0.02,0.02
						C57.51,210.53,58.51,213.12,58.51,215.96z"/>
					<path class="st4" d="M56.31,211.79c0,3.25-1.32,6.2-3.45,8.34c-2.13,2.11-5.07,3.43-8.32,3.43H32.76
						c-0.46,0-0.92-0.1-1.32-0.26v-15.6c0-1.93,1.58-3.51,3.51-3.51h11.79c3.65,0,6.92,1.68,9.08,4.29c0,0,0.02,0,0.02,0.02
						C56.15,209.53,56.31,210.65,56.31,211.79z"/>
				</g>
				<g>
					<path class="st10" d="M38.98,204.19v23.54h-4.03c-1.93,0-3.51-1.58-3.51-3.51V207.7c0-1.93,1.58-3.51,3.51-3.51H38.98z"/>
					<path class="st8" d="M38.98,204.19v19.37h-6.22c-0.46,0-0.92-0.1-1.32-0.26v-15.6c0-1.93,1.58-3.51,3.51-3.51H38.98z"/>
				</g>
				<path class="st11" d="M58.51,215.96c0,3.25-1.32,6.2-3.45,8.34c-2.13,2.11-5.07,3.43-8.32,3.43H34.95
					c-1.93,0-3.51-1.58-3.51-3.51V207.7c0-1.93,1.58-3.51,3.51-3.51h11.79c3.65,0,6.92,1.68,9.08,4.29c0,0,0.02,0,0.02,0.02
					C57.51,210.53,58.51,213.12,58.51,215.96z"/>
				<path class="st11" d="M38.98,204.19v23.54h-4.03c-1.93,0-3.51-1.58-3.51-3.51V207.7c0-1.93,1.58-3.51,3.51-3.51H38.98z"/>
			</g>
			<g>
				<g>
					<g>
						<path class="st10" d="M250.13,110.72c-0.51,0-1.02-0.24-1.33-0.7L237.1,93.11c-0.53-0.77-1.43-1.16-2.36-1.03l-18.84,2.64
							c-0.89,0.13-1.7-0.49-1.83-1.38c-0.12-0.88,0.49-1.7,1.38-1.83l18.84-2.64c2.14-0.3,4.24,0.62,5.47,2.4l11.71,16.92
							c0.51,0.73,0.32,1.74-0.41,2.25C250.77,110.63,250.45,110.72,250.13,110.72z"/>
						<g>
							<g>
								<path class="st12" d="M235.09,88.81c1.85,0,3.59,0.9,4.66,2.45l11.71,16.92c0.51,0.73,0.32,1.74-0.41,2.25
									c-0.28,0.19-0.6,0.29-0.92,0.29c-0.51,0-1.02-0.24-1.33-0.7L237.1,93.11c-0.46-0.67-1.21-1.06-2.01-1.06
									c-0.11,0-0.23,0.01-0.35,0.02l-18.84,2.64c-0.08,0.01-0.15,0.02-0.23,0.02c-0.79,0-1.48-0.59-1.6-1.39
									c-0.12-0.88,0.49-1.7,1.38-1.83l18.84-2.64C234.56,88.83,234.83,88.81,235.09,88.81 M235.1,86.31L235.1,86.31
									c-0.38,0-0.77,0.03-1.15,0.08l-18.84,2.64c-1.09,0.15-2.05,0.72-2.72,1.6c-0.66,0.88-0.94,1.96-0.79,3.05
									c0.28,2.02,2.03,3.55,4.07,3.55c0.19,0,0.39-0.01,0.58-0.04l18.8-2.64l11.69,16.9c0.77,1.11,2.04,1.78,3.39,1.78
									c0.84,0,1.65-0.25,2.34-0.73c0.91-0.63,1.51-1.57,1.71-2.65c0.2-1.08-0.04-2.18-0.66-3.08l-11.71-16.92
									C240.28,87.63,237.77,86.31,235.1,86.31L235.1,86.31z"/>
							</g>
						</g>
					</g>
					<g>
						<path class="st10" d="M217.66,96.1c-2.53,3.51-6.86,4.71-9.67,2.67c-0.5-0.36-0.92-0.8-1.24-1.3
							c-0.04-0.06-0.06-0.1-0.08-0.16c-0.02,0-0.02,0-0.02,0c-1.46-2.27-1.2-5.72,0.84-8.56c1.4-1.93,3.35-3.17,5.29-3.53h0.02
							c1.58-0.32,3.11-0.06,4.37,0.84C219.97,88.1,220.19,92.59,217.66,96.1z"/>
						<path class="st8" d="M213.15,94.09c-1.68,2.33-4.25,3.53-6.48,3.23c-0.02,0-0.02,0-0.02,0c-1.46-2.27-1.2-5.72,0.84-8.56
							c1.4-1.93,3.35-3.17,5.29-3.53h0.02C215.2,87.09,215.36,90.99,213.15,94.09z"/>
					</g>
					<path class="st1" d="M217.66,96.1c-2.53,3.51-6.86,4.71-9.67,2.67c-0.5-0.36-0.92-0.8-1.24-1.3c-1.58-2.27-1.34-5.82,0.74-8.72
						c1.4-1.93,3.35-3.17,5.29-3.53c1.58-0.32,3.13-0.06,4.39,0.84C219.97,88.1,220.19,92.59,217.66,96.1z"/>
				</g>
				<g>
					<g>
						<path class="st10" d="M234.57,117.4c0,2.05-1.46,3.89-3.55,4.29L210,125.7c-2.35,0.44-4.63-1.1-5.07-3.45
							c-0.06-0.28-0.08-0.56-0.08-0.84c0-0.32,0.04-0.64,0.12-0.94c0.36-1.66,1.66-2.99,3.41-3.31l21.02-4.01
							c1.6-0.32,3.17,0.3,4.15,1.48c0.46,0.56,0.8,1.22,0.94,1.97C234.55,116.88,234.57,117.14,234.57,117.4z"/>
						<path class="st8" d="M233.55,114.63c-0.36,1.66-1.68,2.99-3.41,3.31l-21.02,4.01c-1.6,0.32-3.17-0.3-4.15-1.48
							c0.36-1.66,1.66-2.99,3.41-3.31l21.02-4.01C231,112.84,232.57,113.45,233.55,114.63z"/>
						<g>
							<path class="st12" d="M230.24,113.07c1.29,0,2.5,0.59,3.31,1.56c0.46,0.56,0.8,1.22,0.94,1.97c0.06,0.28,0.08,0.54,0.08,0.8
								c0,2.05-1.46,3.89-3.55,4.29L210,125.7c-0.27,0.05-0.54,0.07-0.81,0.07c-2.05,0-3.87-1.44-4.26-3.53
								c-0.06-0.28-0.08-0.56-0.08-0.84c0-0.32,0.04-0.64,0.12-0.94c0.36-1.66,1.66-2.99,3.41-3.31l21.02-4.01
								C229.69,113.1,229.97,113.07,230.24,113.07 M230.24,110.57L230.24,110.57c-0.44,0-0.89,0.04-1.33,0.13l-21,4
								c-2.66,0.48-4.77,2.52-5.37,5.18c-0.13,0.49-0.19,1-0.19,1.52c0,0.48,0.04,0.91,0.13,1.33c0.61,3.21,3.43,5.54,6.71,5.54
								c0.42,0,0.85-0.04,1.26-0.12l21.03-4.01c3.23-0.62,5.58-3.45,5.58-6.74c0-0.45-0.04-0.87-0.13-1.29
								c-0.21-1.12-0.7-2.15-1.46-3.07C234.18,111.47,232.27,110.57,230.24,110.57L230.24,110.57z"/>
						</g>
					</g>
				</g>
				<g>
					<path class="st3" d="M270.61,134.88L247,137.87c-8.42,1.08-16.1-4.89-17.17-13.3c-0.42-3.39,0.3-6.66,1.87-9.43
						c0.36-0.66,0.78-1.3,1.24-1.89c2.39-3.11,5.98-5.29,10.19-5.82l23.62-2.99c2.51-0.32,4.79,1.46,5.11,3.95l2.47,19.55l0.24,1.87
						C274.88,132.28,273.11,134.56,270.61,134.88z"/>
					<path class="st4" d="M271.85,108.37c-0.32-2.49-2.59-4.27-5.11-3.95l-23.62,2.99c-0.84,0.11-1.64,0.3-2.43,0.53l-13.54,2.58
						c-2.61,0.5-4.32,3.01-3.82,5.62l1.29,6.76l7.87-1.5c2.33,6.7,9.09,11.1,16.41,10.16l23.62-2.99c0.66-0.08,1.26-0.3,1.8-0.66
						L271.85,108.37z"/>
					<path class="st4" d="M271.85,108.37c-0.32-2.49-2.59-4.27-5.11-3.95l-23.62,2.99c-0.84,0.11-1.64,0.3-2.43,0.53l-13.54,2.58
						c-2.61,0.5-4.32,3.01-3.82,5.62l1.29,6.76l7.87-1.5c2.33,6.7,9.09,11.1,16.41,10.16l23.62-2.99c0.66-0.08,1.26-0.3,1.8-0.66
						L271.85,108.37z"/>
					<path class="st1" d="M274.56,129.79l-0.24-1.87l-2.47-19.55c-0.32-2.49-2.59-4.27-5.11-3.95l-23.62,2.99
						c-0.44,0.06-0.86,0.14-1.28,0.23c-0.39,0.08-0.77,0.19-1.15,0.3c0,0,0,0,0,0l-13.54,2.58c-2.61,0.5-4.32,3.01-3.82,5.62
						l1.29,6.76l5.11-0.97c-0.04,0.87-0.02,1.74,0.09,2.63c1.08,8.42,8.76,14.38,17.17,13.3l23.62-2.99
						C273.11,134.56,274.88,132.28,274.56,129.79z"/>
				</g>
				<g>
					<path class="st10" d="M271.89,134.5c-0.4,0.2-0.82,0.32-1.28,0.38l-2.41,0.3l-3.77,0.48l-3.85-30.46l3.77-0.48l1.22-0.16
						l1.18-0.14c2.51-0.32,4.79,1.46,5.11,3.95l2.71,21.42C274.82,131.82,273.68,133.72,271.89,134.5z"/>
					<path class="st8" d="M271.89,134.5c-0.02,0.02-0.06,0.02-0.08,0.02l-2.41,0.3l-3.83-30.26l1.18-0.14
						c2.51-0.32,4.79,1.46,5.11,3.95l2.71,21.42C274.82,131.82,273.68,133.72,271.89,134.5z"/>
					<path class="st1" d="M270.61,134.88l-2.41,0.3l-3.77,0.48l-3.85-30.46l3.77-0.48l2.39-0.3c2.51-0.32,4.79,1.46,5.11,3.95
						l2.71,21.42C274.88,132.28,273.11,134.56,270.61,134.88z"/>
				</g>
			</g>
			<g>
				<g>
					<g>
						
							<ellipse transform="matrix(0.7071 -0.7071 0.7071 0.7071 -148.1004 129.5022)" class="st5" cx="82.27" cy="243.52" rx="31.28" ry="31.28"/>
						
							<ellipse transform="matrix(0.7071 -0.7071 0.7071 0.7071 -148.1004 129.5022)" class="st6" cx="82.27" cy="243.52" rx="22.86" ry="22.86"/>
						
							<ellipse transform="matrix(0.7071 -0.7071 0.7071 0.7071 -148.1004 129.5022)" class="st7" cx="82.27" cy="243.52" rx="31.28" ry="31.28"/>
					</g>
					<path class="st8" d="M92.86,243.52c0,5.85-4.74,10.59-10.59,10.59c-5.85,0-10.59-4.74-10.59-10.59
						c0-5.85,4.74-10.59,10.59-10.59C88.12,232.94,92.86,237.68,92.86,243.52z"/>
				</g>
				<g>
					<path class="st9" d="M117.65,241.39v1.6c0,2.33-1.89,4.21-4.21,4.21H51.11c-2.31,0-4.21-1.87-4.21-4.21v-1.6
						c0-2.15,0.2-4.27,0.62-6.32c2.93-15.26,16.38-26.79,32.49-26.79h4.51c16.14,0,29.58,11.53,32.51,26.79
						C117.45,237.12,117.65,239.23,117.65,241.39z"/>
					<path class="st4" d="M117.03,235.06c-0.72,1.24-2.05,2.05-3.59,2.05H51.11c-1.54,0-2.87-0.82-3.59-2.05
						c2.93-15.26,16.38-26.79,32.49-26.79h4.51C100.65,208.28,114.1,219.81,117.03,235.06z"/>
					<path class="st11" d="M117.65,241.39v1.6c0,2.33-1.89,4.21-4.21,4.21H51.11c-2.31,0-4.21-1.87-4.21-4.21v-1.6
						c0-2.15,0.2-4.27,0.62-6.32c2.93-15.26,16.38-26.79,32.49-26.79h4.51c16.14,0,29.58,11.53,32.51,26.79
						C117.45,237.12,117.65,239.23,117.65,241.39z"/>
					<g>
						<path class="st12" d="M104.21,239.7H60.33c-1,0-1.82-0.81-1.82-1.82l0,0c0-1,0.81-1.82,1.82-1.82h43.88
							c1,0,1.82,0.81,1.82,1.82l0,0C106.03,238.88,105.22,239.7,104.21,239.7z"/>
						<path class="st12" d="M100.22,230.19h-35.9c-1,0-1.82-0.81-1.82-1.82l0,0c0-1,0.81-1.82,1.82-1.82h35.9
							c1,0,1.82,0.81,1.82,1.82l0,0C102.04,229.37,101.23,230.19,100.22,230.19z"/>
						<path class="st12" d="M95.24,221.29H69.31c-1,0-1.82-0.81-1.82-1.82l0,0c0-1,0.81-1.82,1.82-1.82h25.93
							c1,0,1.82,0.81,1.82,1.82l0,0C97.05,220.48,96.24,221.29,95.24,221.29z"/>
					</g>
				</g>
			</g>
			<g>
				<path class="st5" d="M199.11,173.41c-1.52,4.71-5.88,7.9-10.83,7.9h-27.92c-5.39,0-10.55,2.19-14.36,6.02
					c-5.62,5.64-15.02,13.22-24.97,13.22H81.58c-7.54,0-12.87-5.01-14.6-11.05v-0.02c-1.58-5.41-0.22-11.67,5.03-15.92
					c1.26-1,2.67-1.97,4.31-2.89c5.84-3.35,12.55-4.97,19.29-4.97h97.89c0.42,0,0.82,0.04,1.2,0.12
					C198.03,166.51,200.2,170,199.11,173.41z"/>
				<path class="st6" d="M194.7,165.83c-0.02,0.1-0.04,0.2-0.08,0.3c-1.52,4.73-5.88,7.92-10.83,7.92h-27.92
					c-5.39,0-10.55,2.17-14.36,6c-5.62,5.64-15.02,13.24-24.97,13.24H77.1c-4.09,0-7.54-1.48-10.11-3.79v-0.02
					c-1.58-5.41-0.22-11.67,5.03-15.92c1.26-1,2.67-1.97,4.31-2.89c5.84-3.35,12.55-4.97,19.29-4.97h97.89
					C193.92,165.71,194.32,165.75,194.7,165.83z"/>
				<path class="st11" d="M199.11,173.41c-1.52,4.71-5.88,7.9-10.83,7.9h-27.92c-5.39,0-10.55,2.19-14.36,6.02
					c-5.62,5.64-15.02,13.22-24.97,13.22H81.58c-7.54,0-12.87-5.01-14.6-11.05v-0.02c-1.58-5.41-0.22-11.67,5.03-15.92
					c1.26-1,2.67-1.97,4.31-2.89c5.84-3.35,12.55-4.97,19.29-4.97h97.89c0.42,0,0.82,0.04,1.2,0.12
					C198.03,166.51,200.2,170,199.11,173.41z"/>
			</g>
		</g>
		<g>
			<g>
				<g>
					<path class="st13" d="M130.93,83.04l-19.43,54.73c-1.48,4.13-5.39,6.9-9.77,6.9H64.41c-5.57,0-9.47-5.45-7.74-10.69
						c0.02-0.06,0.04-0.12,0.06-0.18l19.45-54.73c1.46-4.13,5.37-6.88,9.75-6.88h37.34C128.9,72.19,132.83,77.75,130.93,83.04z"/>
					<path class="st14" d="M120.32,72.19c-0.02,0.06-0.04,0.1-0.06,0.16l-19.45,54.73c-1.48,4.15-5.39,6.9-9.77,6.9H56.67
						c0.02-0.06,0.04-0.12,0.06-0.18l19.45-54.73c1.46-4.13,5.37-6.88,9.75-6.88H120.32z"/>
					<path class="st11" d="M130.93,83.04l-19.43,54.73c-1.48,4.13-5.39,6.9-9.77,6.9H64.41c-5.57,0-9.47-5.45-7.74-10.69
						c0.02-0.06,0.04-0.12,0.06-0.18l19.45-54.73c1.46-4.13,5.37-6.88,9.75-6.88h37.34C128.9,72.19,132.83,77.75,130.93,83.04z"/>
				</g>
				<g>
					<path class="st14" d="M134.02,74.24l-2.01,6.06l-2.01,6.1H96.92l-5.29,14.34c-0.78,2.11-2.81,3.51-5.07,3.51H69.5
						c-2.57,0-4.33-2.57-3.41-4.99l0.42-1.1l9.25-23.84c1.38-3.49,4.75-5.8,8.5-5.8h45.64C132.85,68.54,134.94,71.43,134.02,74.24z"
						/>
					<path class="st15" d="M134.02,74.24l-2.01,6.06H93.23l-5.29,14.34c-0.78,2.13-2.79,3.53-5.07,3.53H66.51l9.25-23.84
						c1.38-3.49,4.75-5.8,8.5-5.8h45.64C132.85,68.54,134.94,71.43,134.02,74.24z"/>
					<path class="st11" d="M134.02,74.24l-2.01,6.06l-2.01,6.1H96.92l-5.29,14.34c-0.78,2.11-2.81,3.51-5.07,3.51H69.5
						c-2.57,0-4.33-2.57-3.41-4.99l0.42-1.1l9.25-23.84c1.38-3.49,4.75-5.8,8.5-5.8h45.64C132.85,68.54,134.94,71.43,134.02,74.24z"
						/>
				</g>
			</g>
			<g>
				<g>
					<path class="st14" d="M177.01,228.03c0,0.11,0,0.19-0.02,0.3c0,0.19-0.04,0.38-0.06,0.57c-0.42,2.33-2.43,4.02-4.8,4.02h-31.03
						c-3.19,0-5.31-3.28-4-6.17l5.67-12.58l4.74,0.34l12.73,0.91c4.35,4.35,9.83,6.76,13.49,7.99
						C175.72,224.07,177.01,225.96,177.01,228.03z"/>
					<path class="st15" d="M177.01,228.03c0,0.11,0,0.19-0.02,0.3h-28.94c-3.17,0-5.28-3.28-4-6.17l3.45-7.65l12.73,0.91
						c4.35,4.35,9.83,6.76,13.49,7.99C175.72,224.07,177.01,225.96,177.01,228.03z"/>
					<path class="st11" d="M177.01,228.03c0,0.11,0,0.19-0.02,0.3c0,0.19-0.04,0.38-0.06,0.57c-0.42,2.33-2.43,4.02-4.8,4.02h-31.03
						c-3.19,0-5.31-3.28-4-6.17l5.67-12.58l4.74,0.34l12.73,0.91c4.35,4.35,9.83,6.76,13.49,7.99
						C175.72,224.07,177.01,225.96,177.01,228.03z"/>
				</g>
				<g>
					<path class="st5" d="M180.5,169.74c-0.3,1.34-0.7,2.11-0.7,2.11l-18.03,43.6c-5.07,2.65-10.61,2.45-14.64,1.7
						c-3.47-0.64-5.82-1.7-5.82-1.7l11.97-34.45h-27.8c-4.67,0-9.29-1.18-13.24-3.65c-13.94-8.72-8.88-24.57-8.88-24.57l7.74,0.36
						l43.02,2.01l15.66,0.8C176.81,156.32,182.01,162.86,180.5,169.74z"/>
					<path class="st6" d="M180.5,169.74c-0.3,1.34-0.7,2.11-0.7,2.11l-18.03,43.6c-5.07,2.65-10.61,2.45-14.64,1.7l14.76-43.1h-27.8
						c-4.65,0-9.27-1.18-13.24-3.65c-7.78-4.87-9.63-11.95-9.75-17.25l43.02,2.01l15.66,0.8
						C176.81,156.32,182.01,162.86,180.5,169.74z"/>
					<path class="st11" d="M180.5,169.74c-0.3,1.34-0.7,2.11-0.7,2.11l-18.03,43.6c-5.07,2.65-10.61,2.45-14.64,1.7
						c-3.47-0.64-5.82-1.7-5.82-1.7l11.97-34.45h-27.8c-4.67,0-9.29-1.18-13.24-3.65c-13.94-8.72-8.88-24.57-8.88-24.57l7.74,0.36
						l43.02,2.01l15.66,0.8C176.81,156.32,182.01,162.86,180.5,169.74z"/>
				</g>
			</g>
			<g>
				<g>
					<path class="st10" d="M148.42,66.06l-3.15,12.65c-0.46,1.8-1.76,3.31-3.49,3.97c-0.06,0.02-0.14,0.06-0.2,0.08
						c-1.38,0.5-2.75,0.44-3.95-0.02c-2.53-1-4.29-3.77-3.59-6.76l2.29-9.91H148.42z"/>
					<path class="st8" d="M144.43,66.06l-3.15,12.65c-0.46,1.8-1.74,3.31-3.49,3.97c-0.04,0.02-0.1,0.04-0.16,0.06
						c-2.53-1-4.29-3.77-3.59-6.76l2.29-9.91H144.43z"/>
					<path class="st11" d="M148.42,66.06l-3.15,12.65c-0.46,1.8-1.76,3.31-3.49,3.97c-0.06,0.02-0.14,0.06-0.2,0.08
						c-1.38,0.5-2.75,0.44-3.95-0.02c-2.53-1-4.29-3.77-3.59-6.76l2.29-9.91H148.42z"/>
				</g>
				<g>
					<path class="st10" d="M183.09,29.02l-4.49,25.99l-0.72,4.17c-1.32,7.52-7.82,13-15.46,13h-18.59
						c-6.76,0-11.89-6.08-10.73-12.75l0.76-4.43l4.49-25.99H183.09z"/>
					<path class="st8" d="M175.59,29.02l-4.51,25.99l-0.72,4.17c-1.3,7.52-7.82,13-15.44,13h-11.09c-6.76,0-11.89-6.08-10.73-12.75
						l0.76-4.43l4.49-25.99H175.59z"/>
				</g>
				<path class="st11" d="M183.09,29.02l-4.49,26l-0.72,4.16c-1.3,7.52-7.82,13-15.44,13h-18.6c-6.76,0-11.88-6.08-10.73-12.74
					l0.76-4.42l4.49-26H183.09z"/>
				<g>
					<path class="st10" d="M177.88,59.18c-1.32,7.5-7.82,13-15.46,13h-18.59c-6.76,0-11.89-6.08-10.73-12.75l0.76-4.43h40.51
						C176.59,55.01,178.26,57.01,177.88,59.18z"/>
					<path class="st8" d="M169.77,59.18c-1.3,7.5-7.82,13-15.44,13h-10.49c-6.76,0-11.89-6.08-10.73-12.75l0.76-4.43h32.39
						C168.47,55.01,170.14,57.01,169.77,59.18z"/>
					<path class="st11" d="M177.88,59.18c-1.32,7.5-7.82,13-15.46,13h-18.59c-6.76,0-11.89-6.08-10.73-12.75l0.76-4.43h40.51
						C176.59,55.01,178.26,57.01,177.88,59.18z"/>
				</g>
				<g>
					<path class="st14" d="M191.17,29.78c-0.5,2.37-2.63,4.05-5.05,4.05h-39.79l-5.03,27.15c-0.72,3.79-3.95,6.6-7.8,6.76l-1.91,0.1
						c-5.11,0.22-9.39-3.23-10.57-7.84c-0.36-1.4-0.42-2.87-0.16-4.41l4.79-26.95c1.89-10.73,9.61-19.59,20.07-22.7
						c5.76-1.72,13.2-2.59,22.76-1.76c4.87,0.42,9.61,1.97,13.7,4.69c0.78,0.52,1.56,1.1,2.31,1.74
						C189.15,14.48,193.04,20.59,191.17,29.78z"/>
					<path class="st15" d="M185.74,23.04c-0.48,2.37-2.61,4.05-5.05,4.05h-39.77l-5.05,27.15c-0.7,3.79-3.93,6.6-7.8,6.78
						l-1.91,0.08c-1.87,0.08-3.61-0.32-5.15-1.1c-0.36-1.4-0.42-2.87-0.16-4.41l4.79-26.95c1.89-10.73,9.61-19.59,20.07-22.7
						c5.76-1.72,13.2-2.59,22.76-1.76c4.87,0.42,9.61,1.97,13.7,4.69c0.78,0.52,1.56,1.1,2.31,1.74
						C186.08,13.92,186.76,18.03,185.74,23.04z"/>
					<path class="st11" d="M191.17,29.78c-0.5,2.37-2.63,4.05-5.05,4.05h-39.79l-5.03,27.15c-0.72,3.79-3.95,6.6-7.8,6.76l-1.91,0.1
						c-5.11,0.22-9.39-3.23-10.57-7.84c-0.36-1.4-0.42-2.87-0.16-4.41l4.79-26.95c1.89-10.73,9.61-19.59,20.07-22.7
						c5.76-1.72,13.2-2.59,22.76-1.76c4.87,0.42,9.61,1.97,13.7,4.69c0.78,0.52,1.56,1.1,2.31,1.74
						C189.15,14.48,193.04,20.59,191.17,29.78z"/>
				</g>
			</g>
			<g>
				<g>
					<path class="st16" d="M158.02,98.43l-2.35,56.19c0,0-19.35,7.76-47.31,1.78c-2.31-0.5-4.69-1.08-7.1-1.78l18.33-59.32
						c1.34-4.31,3.29-8.4,5.98-12.03c2.19-2.97,5.09-5.94,8.48-7.3l6.44,1.58l4.79,1.16C145.27,78.71,158.02,84.93,158.02,98.43z"/>
					<path class="st2" d="M158.02,98.43l-2.35,56.19c0,0-19.35,7.76-47.31,1.78l18.43-59.66c1.36-4.39,3.35-8.56,6.08-12.25
						c2.03-2.73,4.61-5.45,7.62-6.94l4.79,1.16C145.27,78.71,158.02,84.93,158.02,98.43z"/>
					<path class="st11" d="M158.02,98.43l-2.35,56.19c0,0-19.35,7.76-47.31,1.78c-2.31-0.5-4.69-1.08-7.1-1.78l18.33-59.32
						c1.34-4.31,3.29-8.4,5.98-12.03c2.19-2.97,5.09-5.94,8.48-7.3l6.44,1.58l4.79,1.16C145.27,78.71,158.02,84.93,158.02,98.43z"/>
				</g>
				<g>
					<path class="st15" d="M130.75,80.64c0,0,14.54,5.36,15.78,18.05c0.32,3.27-0.38,6.56-1.79,9.53l-4.71,9.95
						c-2.83,5.98-8.43,10.15-14.96,11.2c-3.66,0.59-8.38,1.01-14.4,1.01c0,0-2.32,5.05-2.32,7.5c0,0,7.63,0.61,16.46-1.02
						c8.75-1.62,16.25-7.25,20.41-15.12l4.68-8.87c3.14-5.95,4.03-12.9,2.13-19.35c-1.81-6.13-6.28-12.62-16.54-15.96
						C135.49,77.55,132.05,78.39,130.75,80.64z"/>
					<g>
						<path class="st12" d="M135.49,77.55c10.25,3.35,14.72,9.84,16.54,15.96c1.91,6.45,1.01,13.4-2.13,19.35l-4.68,8.87
							c-4.16,7.87-11.65,13.5-20.41,15.12c-5.05,0.94-9.71,1.14-12.77,1.14c-2.29,0-3.68-0.11-3.68-0.11c0-2.45,2.32-7.5,2.32-7.5
							c6.02,0,10.74-0.42,14.4-1.01c6.53-1.05,12.13-5.22,14.96-11.2l4.71-9.95c1.41-2.97,2.11-6.26,1.79-9.53
							c-1.24-12.7-15.78-18.05-15.78-18.05C132.05,78.39,135.49,77.55,135.49,77.55 M135.59,74.95l-0.69,0.17
							c-0.46,0.11-4.53,1.18-6.31,4.26l-1.49,2.57l2.79,1.03c0.03,0.01,3.42,1.29,6.87,3.98c4.39,3.43,6.85,7.46,7.29,11.97
							c0.26,2.67-0.28,5.51-1.56,8.22l-4.71,9.95c-2.47,5.22-7.36,8.88-13.09,9.8c-4.03,0.65-8.74,0.98-14,0.98h-1.6l-0.67,1.46
							c-0.42,0.93-2.55,5.69-2.55,8.54v2.31l2.3,0.18c0.06,0,1.52,0.12,3.88,0.12c3.13,0,7.97-0.2,13.23-1.18
							c9.51-1.76,17.58-7.74,22.16-16.41l4.68-8.87c3.55-6.73,4.37-14.27,2.31-21.23c-2.51-8.48-8.79-14.57-18.16-17.63
							L135.59,74.95L135.59,74.95z"/>
					</g>
				</g>
				<g>
					<g>
						<path class="st10" d="M219.23,109.98c-2.15,9.12-12.05,7.5-12.05,7.5l-13.08,4.23l-1.3-3.51l-2.53-6.78l12.49-6.08
							c5.52-3.37,9.37-3.79,11.99-3.13c1.02,0.26,1.89,0.74,2.59,1.4C219.03,105.14,219.79,107.61,219.23,109.98z"/>
						<path class="st8" d="M217.32,106.67c-2.15,9.12-12.05,7.5-12.05,7.5l-12.47,4.03l-2.53-6.78l12.49-6.08
							c5.52-3.37,9.37-3.79,11.99-3.13c0.01,0,0.02,0.01,0.03,0.01c1.83,0.48,2.96,2.4,2.59,4.25
							C217.35,106.53,217.33,106.6,217.32,106.67z"/>
						<path class="st1" d="M219.23,109.98c-2.15,9.12-12.05,7.5-12.05,7.5l-13.08,4.23l-1.3-3.51l-2.53-6.78l12.49-6.08
							c5.52-3.37,9.37-3.79,11.99-3.13c1.02,0.26,1.89,0.74,2.59,1.4C219.03,105.14,219.79,107.61,219.23,109.98z"/>
					</g>
					<g>
						<path class="st16" d="M204.81,121.51l-36.26,16.75c-1.46,0.7-3.05,1.04-4.65,1.04c-0.62,0-1.26-0.06-1.87-0.16
							c-2.51-0.42-4.81-1.68-6.5-3.57l-26.23-31.32c-1.64-1.83-2.43-4.09-2.43-6.34c0-1.66,0.42-3.29,1.28-4.75
							c0.64-1.16,1.56-2.19,2.71-3.03c4.15-2.97,9.87-2.17,13.04,1.81l21.12,27.82l32.13-14.56c3.57,3.57,5.49,6.98,6.52,9.73
							C205.15,118.88,204.81,121.51,204.81,121.51z"/>
						<path class="st2" d="M203.67,114.95l-34.27,15.84c-1.48,0.68-3.07,1.04-4.69,1.04c-0.62,0-1.22-0.06-1.84-0.16
							c-2.51-0.42-4.83-1.68-6.52-3.59l-26.21-31.3c-0.98-1.08-1.64-2.31-2.01-3.61c0.64-1.16,1.56-2.19,2.71-3.03
							c4.15-2.97,9.87-2.17,13.04,1.81l21.12,27.82l32.13-14.56C200.72,108.79,202.64,112.2,203.67,114.95z"/>
						<path class="st1" d="M204.81,121.51l-36.26,16.75c-1.46,0.7-3.05,1.04-4.65,1.04c-0.62,0-1.26-0.06-1.87-0.16
							c-2.51-0.42-4.81-1.68-6.5-3.57l-26.23-31.32c-1.64-1.83-2.43-4.09-2.43-6.34c0-1.66,0.42-3.29,1.28-4.75
							c0.64-1.16,1.56-2.19,2.71-3.03c4.15-2.97,9.87-2.17,13.04,1.81l21.12,27.82l32.13-14.56c3.57,3.57,5.49,6.98,6.52,9.73
							C205.15,118.88,204.81,121.51,204.81,121.51z"/>
					</g>
				</g>
			</g>
		</g>
	</g>
</g>
<g>
</g>
<g>
</g>
<g>
</g>
<g>
</g>
<g>
</g>
<g>
</g>
<g>
</g>
<g>
</g>
<g>
</g>
<g>
</g>
<g>
</g>
<g>
</g>
<g>
</g>
<g>
</g>
<g>
</g>
</svg>
