<?xml version="1.0" encoding="utf-8"?>
<!-- Generator: Adobe Illustrator 24.0.3, SVG Export Plug-In . SVG Version: 6.00 Build 0)  -->
<svg version="1.1" id="Camada_1" xmlns="http://www.w3.org/2000/svg" xmlns:xlink="http://www.w3.org/1999/xlink" x="0px" y="0px"
	 viewBox="0 0 332.32 274.85" style="enable-background:new 0 0 332.32 274.85;" xml:space="preserve">
<style type="text/css">
	.st0{fill:#D4EEEB;}
	.st1{fill:none;stroke:#69443D;stroke-width:2.5;stroke-linecap:round;stroke-linejoin:round;stroke-miterlimit:10;}
	.st2{fill:#E1D8DC;}
	.st3{fill:#D2C5CA;}
	.st4{fill:#FFBC68;}
	.st5{fill:#FFA535;}
	.st6{fill:#604640;}
</style>
<g>
	<g>
		<path class="st0" d="M325.32,170.56c0,39.31-14.23,75.28-37.84,103.06H44.37C20.76,245.84,6.54,209.87,6.54,170.56
			c0-88.03,71.36-159.39,159.39-159.39C253.96,11.17,325.32,82.53,325.32,170.56z"/>
		<polyline class="st1" points="320.87,273.62 287.48,273.62 44.37,273.62 10.99,273.62 		"/>
	</g>
</g>
<g>
	<path class="st2" d="M213.8,46.52c3.21-8.83-1.34-18.59-10.17-21.81c-8.83-3.21-18.59,1.34-21.81,10.17
		c-0.15,0.41-0.28,0.82-0.39,1.23l-30.53,96.15l23.98,8.73l38.42-93.27C213.48,47.33,213.65,46.93,213.8,46.52z"/>
	<path class="st3" d="M203.8,24.78c1.38,3.67,1.52,7.84,0.07,11.81c-0.15,0.41-0.32,0.81-0.49,1.2l-38.42,93.27l-12.26-4.46
		l-1.8,5.66l23.98,8.73l38.42-93.27c0.18-0.39,0.34-0.79,0.49-1.2C216.99,37.75,212.52,28.06,203.8,24.78z"/>
	<path class="st4" d="M159.16,257.62c72.82,0,131.85-59.03,131.85-131.85H27.31C27.31,198.59,86.34,257.62,159.16,257.62z"/>
	<path class="st5" d="M44.32,125.77H27.31c0,72.82,59.03,131.85,131.85,131.85c2.86,0,5.69-0.1,8.51-0.28
		C98.81,252.95,44.32,195.73,44.32,125.77z"/>
	<rect x="91.11" y="240.61" class="st4" width="136.11" height="25.52"/>
	<rect x="91.11" y="240.61" class="st5" width="17.01" height="25.52"/>
	<circle cx="197.81" cy="40.71" r="3.99"/>
	<path class="st6" d="M291.01,121.78h-28.89c-2.2,0-3.99,1.79-3.99,3.99s1.79,3.99,3.99,3.99h24.84
		c-1.38,44.09-25.64,84.73-64.04,106.86H95.27c-0.17-0.14-0.34-0.27-0.53-0.38c-37.98-22.2-62-62.73-63.38-106.49h210.92
		c2.2,0,3.99-1.79,3.99-3.99s-1.79-3.99-3.99-3.99h-55.16l29.85-72.48c3.85-8.58,1.39-18.98-5.91-24.91
		c-1.81-1.47-3.87-2.62-6.06-3.42c-8.74-3.18-18.85-0.08-24.26,7.49c-1.41,1.97-2.46,4.18-3.12,6.51l-27.56,86.81H27.31
		c-2.2,0-3.99,1.79-3.99,3.99c0,24.16,6.43,47.89,18.58,68.62c11.09,18.91,26.67,34.93,45.22,46.56v25.18c0,2.2,1.79,3.99,3.99,3.99
		h136.11c2.2,0,3.99-1.79,3.99-3.99v-25.17c18.37-11.51,33.82-27.33,44.9-46.01c12.37-20.86,18.9-44.78,18.9-69.17
		C295,123.56,293.21,121.78,291.01,121.78z M185.23,37.32c1.03-3.26,2.9-6.01,5.88-7.79c3.35-2,7.48-2.41,11.16-1.07
		c5.33,1.94,8.87,7.31,8.55,12.98c-0.09,1.68-0.56,3.21-1.2,4.76l-31.13,75.58h-20.07L185.23,37.32z M223.22,262.14H95.09v-17.55
		h128.13L223.22,262.14L223.22,262.14z"/>
</g>
</svg>
